<svg xmlns="http://www.w3.org/2000/svg" width="584.017" height="600.118" viewBox="0 0 584.017 773.118">
  <g id="Group_3564" data-name="Group 3564" transform="translate(-177.31 -57.331)" opacity="0.44">
    <g id="Group_3469" data-name="Group 3469" transform="translate(177.31 57.331)" opacity="0.2">
      <g id="group_3468" transform="translate(47.44 0)">
        <path id="Path_5151" data-name="Path 5151" d="M151.746,204.586c.363-.228.283-.363.725-.656,1.342-.878.783-1.142-.134-4.841-.363-1.418-.606-2.756-.9-4.21-.555-2.789-.986-5.6-1.414-8.627-.214-1.5-.337-2.952-.471-4.457a95.636,95.636,0,0,1,8.623-47.63,198.894,198.894,0,0,1,11.031-21.9c.337-.551.587-1.088.939-1.675.66-1.088,1.229-2.176,1.871-3.216l5.562-9.577,1.911-3.173L191.865,74.3c.341-.573.685-1.023,1.019-1.581,1.371-2.3,2.93-4.544,4.406-6.77a48.542,48.542,0,0,1,5.954-8.007,25.985,25.985,0,0,1,3.2,4.137c.363.548.627.986,1,1.519,1.686,2.43,3.089,5.022,4.609,7.557l9.381,17.58L225.357,97a162.2,162.2,0,0,1,10.516,30.46c.316,1.258.548,2.538.878,3.869.674,2.687,1.088,5.276,1.545,8.043a172.229,172.229,0,0,1,2.139,30.641c0,.827-.069,1.7-.062,2.422s-.13,1.755-.192,2.538c.859-.236,2.8-3.543,3.18-4.181,6.89-11.422,6.1-28.857,4.489-41.6-.406-3.216-.994-6.422-1.519-9.482-.268-1.559-.638-3.1-.921-4.547-1.168-6-2.923-11.85-4.533-17.692-.4-1.45-.874-2.865-1.327-4.319-.859-2.763-1.77-5.668-2.818-8.376-.787-2.034-1.418-4.112-2.245-6.139-.294-.725-.54-1.295-.823-2.023l-2.426-5.987a148.02,148.02,0,0,0-17.917-31.852l-1.889-2.415A55.482,55.482,0,0,0,204.47,28.8c-.522-.49-.99-.943-1.516-1.432l-2.977-2.789a14.144,14.144,0,0,1-2.031-2.3c-1-1.487-.874-.772-4.058-.214-.921.163-.838.123-1.055,1.124-.152.707-.272,1.247-.439,1.842l-1.947,7.151A167.038,167.038,0,0,1,183.5,52.077l-2.727,6.237a164.14,164.14,0,0,1-9.065,17.525c-.555.921-1.2,1.886-1.646,2.785-.838,1.7-4.732,7.43-6,9.479-1.367,2.2-2.9,4.351-4.4,6.5-.635.907-1.2,1.683-1.835,2.567l-12.779,17.913c-3.122,4.351-5.878,8.866-8.656,13.446A74.2,74.2,0,0,0,125.946,158.6c-.069.863-.189,1.374-.286,2.034-.087.58.036,1.233-.036,2.031a48.914,48.914,0,0,0,1.066,15.085c2.44,9.218,8.123,12.329,14.893,17.373L146.47,199c.453.4.725.671,1.124,1.055l3.177,3.329c.254.3.769,1.03.961,1.193Z" transform="translate(-17.168 -21.403)" fill="#fff" fill-rule="evenodd"/>
        <path id="Path_5152" data-name="Path 5152" d="M169.2,61.031a145.692,145.692,0,0,0,12.423,8.34l9.627,5.994c3.76,2.245,8.3,5.24,11.966,7.669l3.989,2.643c13.054,9.845,31.548,18.776,45.936,27.341,4.87,2.934,9.595,6.135,14.5,9.065l3.209,2c.566.341,1.153.678,1.708,1.03a38.846,38.846,0,0,1-4.613,10,34.888,34.888,0,0,1-6.7,7.55,31.642,31.642,0,0,1-12.329,6.364c-.856.232-1.606.41-2.444.606a53.768,53.768,0,0,1-22.725-.58,68.632,68.632,0,0,1-18.889-7.441l-3.989-2.4a149.494,149.494,0,0,1-15.2-10.588c-.642-.5-1.142-.928-1.777-1.45-.33-.268-.548-.417-.859-.689s-.551-.5-.892-.776a53.08,53.08,0,0,1-5.015-4.6c-1.313-1.367-3.492-3.361-4.674-4.776a60.429,60.429,0,0,0-4.765-4.816,24.444,24.444,0,0,0-5.8-3.942,31.615,31.615,0,0,0-4.678-1.813c-1.835-.558-3.409-.859-5.41-1.3-.95-.21-2.012-.334-2.861-.519-1.342-.29-4.544-.649-6.041-.765-1.2-.094-1.875-.276-3.039-.363a47.732,47.732,0,0,0,5.287,11.241,58.618,58.618,0,0,0,4.25,6.085l7.92,8.993a74.1,74.1,0,0,0,7.927,7.209c3.22,2.538,6.393,5.117,9.831,7.358l5.3,3.412c.892.645,1.74,1.015,2.705,1.6a125.587,125.587,0,0,0,20.669,9.943c2.223.816,4.319,1.577,6.592,2.306a112.87,112.87,0,0,0,16.006,3.989c2.016.33,3.909.671,5.98.841h.1l6.607.519a74.358,74.358,0,0,0,12.887-.725c1.255-.218,2.208-.363,3.4-.595a52.006,52.006,0,0,0,9.428-2.836,41.372,41.372,0,0,0,10.65-6.117,28.651,28.651,0,0,0,2.306-1.878c.725-.758,1.4-1.291,2.136-2.078a52.981,52.981,0,0,0,13.188-26.17,114.332,114.332,0,0,0,1.954-16.3c-.939-.595-23.244-9.747-24.8-10.327-1.744-.649-4.493-1.327-6.436-1.965-5.385-1.766-10.806-3.554-15.988-5.773l-3.862-1.559c-3.463-1.255-9.562-4.083-13.337-5.668-4.449-1.867-8.735-3.913-13.188-5.8-2.575-1.088-4.957-2.176-7.539-3.264-5.185-2.176-10.182-4.308-15.506-6.3a207.429,207.429,0,0,0-22.8-7.412,14.38,14.38,0,0,0-2.313-.511Z" transform="translate(93.563 283.157)" fill="#fff" fill-rule="evenodd"/>
        <path id="Path_5153" data-name="Path 5153" d="M543.122,86.118l-.529,6.734a164.19,164.19,0,0,1-7.158,35.446,188.952,188.952,0,0,1-7.085,19.581l-2.85,6.647c-1.98,4.714-4.406,9.475-6.77,13.99l-5.3,9.751-9.189,15.161c-.276.432-.45.627-.725,1.088l-1.418,2.223c-.5.725-.976,1.476-1.487,2.281-.246.363-.468.693-.725,1.088s-.435.689-.725,1.088c-3.354,4.75-5.943,8.424-9.468,12.916l-10.324,11.771c-.613.656-1.2,1.273-1.795,1.922s-1.153,1.276-1.788,1.936c-19.875,21.572-45.084,46.183-73.292,57.471L392.238,291.2c-1.723.7-3.285,1.338-5.015,2.034a44.269,44.269,0,0,1-16.452,4.594c-2.063.3-3.989.577-6,.892.185-.247,4.714-3.071,5.628-3.815l6.752-5.135a84.659,84.659,0,0,0,8.115-5.2c.344-.272.486-.312.816-.573a6.613,6.613,0,0,1,.725-.551c.548-.363.921-.743,1.519-1.142l5.193-4.319c1.055-1.131,2.379-2.045,3.514-3.1.316-.29.363-.431.689-.725.258-.228.431-.363.693-.584l2.814-2.538c1.019-.859,1.929-1.646,2.948-2.513a42.418,42.418,0,0,1,3.735-2.981l3.746-2.821c.333-.247.475-.294.812-.577a5.64,5.64,0,0,1,.725-.529,52.858,52.858,0,0,0,5.051-4.5c.229-.247.417-.363.671-.595,1.857-1.7,3.528-3.652,5.345-5.4.493-.475.914-.954,1.371-1.451l3.909-4.166c.239-.25.435-.5.664-.751l4.453-4.913c1.777-1.86,3.434-3.851,5.117-5.8.856-.99,1.628-1.918,2.488-2.9l7.426-8.779c4.068-5,8.34-9.86,12.061-15.146.4-.573.725-1,1.142-1.574,2.48-3.507,5.076-6.919,7.3-10.592a8.7,8.7,0,0,1,.5-.79c1.726-2.382,4.714-7.539,6.32-10.219,4.928-8.177,9.319-16.68,13.439-25.318,2.433-5.117,4.75-10.262,6.716-15.592,2.027-5.468,4.174-10.965,5.8-16.619a89.346,89.346,0,0,0,1.788-9.559l4.072-24.219c-.149.029-.1-.025-.3.2-.591.656-2.176,3.282-3.963,5.222a73.571,73.571,0,0,1-8.014,6.426l-1.338,1.091c-3.042,2.611-5.483,5.849-8.7,8.264-.29.214-.435.283-.743.522-1.585,1.2-3.322,2.219-5.011,3.264l-5.777,3.778c-.975.682-1.922,1.211-2.9,1.893s-1.929,1.211-2.9,1.886c-.5.363-.957.627-1.451.936l-8.7,5.512c-.54.344-.936.558-1.476.91l-36.722,20.176c-4.5,2.237-10.879,5.751-15.35,8.246l-12.053,6.984c-3.956,2.353-7.814,4.91-11.709,7.372-4.627,2.926-10.385,6.788-14.867,10.193l-11.441,8.938a49.74,49.74,0,0,0-3.952,3.285,28.966,28.966,0,0,1-2.538,2.274l-4.406,4.134c-1.784,1.813-3.706,3.575-5.381,5.494-.794.9-1.541,1.679-2.317,2.538s-1.548,1.7-2.274,2.607A125.333,125.333,0,0,0,322.355,232.1a97.394,97.394,0,0,0-11.15,29.1,45.894,45.894,0,0,0-1.106,6.61c-.069.979-.247,1.371-.312,2.281-.116,1.61-.247,3.213-.363,4.823l-.109,4.486c.432,3.336,2.176,11.5,2.9,15.545a17.541,17.541,0,0,0,1.672,4.264l5.381,12.22a49.476,49.476,0,0,0,4.254,7.615c1.585,2.078,3.06,4.971,4.573,7.35.214.337.326.461.511.751l4.351,6.222c1.548,2.39,5.639,7.078,7.546,9.316l6.353,7.017c2.567,2.654,5.232,5.283,7.978,7.749,2.353,2.107,4.714,4.315,7.194,6.3,2.93,2.335,5.824,4.681,8.891,6.857l2.9,2.034c.515.363.965.638,1.472,1l7.55,4.8a117.379,117.379,0,0,0,27.813,12.133l4.029,1.063c1.088.345,5.98,2.593,6.955,3.06.627.3,1.088.486,1.737.769a15.815,15.815,0,0,0,1.646.725,18.258,18.258,0,0,1-4.221.047c-1.294-.105-3.053,0-4.326-.073-2.988-.2-5.965-.221-8.92-.45l-9.142-.725c-1.45-.109-3.151-.167-4.573-.363-.725-.1-1.247-.228-2.15-.294-.7-.054-1.61-.08-2.281-.189-2.778-.45-5.925-.638-8.627-1.16l-3.263-.406c-1.741-.276-3.485-.442-5.254-.849-1.4-.312-2.759-.4-4.166-.707l-20.14-4.123a307.675,307.675,0,0,1-54.41-17.369c-3.807-1.726-7.564-3.369-11.31-5.265-47.376-24.263-57.065-47.089-78-83.369-.725-1.32-1.813-2.15-2.016-2.785-.283-.892-.78-.7-.954-1.559a25.219,25.219,0,0,0-1.7-5.3c-.363-.758-.649-1.512-1-2.23a165.612,165.612,0,0,0-7.814-14.777l-1.2-2.06c-2.716-4.761-5.7-9.334-8.627-13.961-2.1-3.325-4.417-6.5-6.592-9.791a57.422,57.422,0,0,0-4.351-5.407,6.993,6.993,0,0,0-.805-.856l-1.621-1.7a75.3,75.3,0,0,0-14.106-10.813l-2.176-1.215c-1.53-.772-3-1.556-4.547-2.274a80.4,80.4,0,0,0-15.342-5.258A91.771,91.771,0,0,0,119.46,198.9q-3.235-.25-6.469-.5a38.486,38.486,0,0,1,4.061-6.752c.78-1.088,1.516-2.027,2.379-3.042l2.52-2.745,6.44-5.5c.308-.21.475-.326.751-.5a60.5,60.5,0,0,1,15.73-7.532l3.938-1.062a74.806,74.806,0,0,1,8.63-1.418,83.857,83.857,0,0,1,12-.247c3.568.3,6.672.649,10.121,1.193a83.634,83.634,0,0,1,15.31,4.1,88.836,88.836,0,0,1,11.335,5c1.16.62,2.335,1.2,3.47,1.893l3.416,2.063c3.329,2,6.422,4.275,9.584,6.5a78.19,78.19,0,0,0,12.67,8.732c1.16.381.91.25,1.628,1.088a27.512,27.512,0,0,0,11.734,7.158,66.484,66.484,0,0,0,8.576,2.39c11.887,2.266,25.314,2.9,36.6-1.69a61.861,61.861,0,0,0,7.009-3.3c2.281-1.276,4.319-2.538,6.44-3.989,2.364-1.6,4.573-3.311,6.8-5.077,2.654-2.1,5.222-4.351,7.8-6.527l34.713-32.606c1.033-1.088,4.884-4.2,6.284-5.4l2.937-2.39c1.3-1.117,4.406-3.626,5.9-4.609.363-.228.461-.381.78-.616l5.334-3.746c.562-.406,1-.682,1.559-1.088,2.052-1.418,4.228-2.654,6.317-3.989,2.654-1.679,5.5-3.144,8.3-4.573l10.4-5.175c1.193-.6,2.248-1.059,3.448-1.646s2.263-1.059,3.452-1.646l7.912-3.771c.319-.16.515-.228.849-.392l5.185-2.538c6.273-3.133,12.387-6.433,18.493-9.841l6.563-3.829c2.745-1.574,5.388-3.307,8.054-5,.566-.363,1.055-.693,1.6-1.044s.983-.613,1.523-.983l9.239-6.389c.515-.363,1-.762,1.5-1.15l2.981-2.176c.283-.228.461-.424.754-.638l3.608-2.857c.337-.276.486-.308.816-.573l9.791-8.5c.276-.268.315-.363.62-.656,2.125-1.878,4.05-3.945,6.088-5.911.247-.232.4-.413.627-.653l6.378-6.962,8.246-10.32c3.753-5.283,6.2-9,9.627-14.671l4.776-8.7a6.983,6.983,0,0,1,1.679-.816,8.086,8.086,0,0,0,.671,1.2,102.669,102.669,0,0,1,11.448,29.325,133.771,133.771,0,0,1,2.593,18.283,89.869,89.869,0,0,1,.225,10c-.051.725.062.972,0,1.78a10.666,10.666,0,0,0-.069,1.715,2.819,2.819,0,0,0,.025.453ZM154.634,183.532a39.969,39.969,0,0,1,6.527-.551,28.044,28.044,0,0,1,7.716.928,15.625,15.625,0,0,1,4.772,2.143c.609.508-.051.558-1.026.526a12.752,12.752,0,0,0-3.082.087c-.8.21-1.124.751-1.45.769s-.664-.475-1.414-1a10.665,10.665,0,0,0-3.847-1.519c-1.926-.424-4.6-.725-6.4-.921s-2.734-.257-1.78-.468ZM143.7,189.62c.5-1.211.725.363,2.477,2.089a20.256,20.256,0,0,0,8.982,4.565,24.853,24.853,0,0,0,12.256-.123,87.582,87.582,0,0,0,10.182-4.652,30.528,30.528,0,0,1,10.82-2.052c4.032-.152,8.6.08,8.565,1.026s-4.7,2.6-8.112,4.8a41.045,41.045,0,0,0-7.92,7.423,56.9,56.9,0,0,1-6.781,6.237,8.34,8.34,0,0,1-6.1,2.176,33.2,33.2,0,0,1-9.885-2.469,58.646,58.646,0,0,1-9.363-4.9,10.922,10.922,0,0,1-5.7-6.106,16.042,16.042,0,0,1,.577-8.01Zm-28.164,7.318c1.795-2.256,3.594-4.5,5.842-7.053a61.141,61.141,0,0,1,7.735-7.532,35.9,35.9,0,0,1,9.6-5.175c3.956-1.537,9.018-3.115,14.077-4.714A126.63,126.63,0,0,0,143,181.621a20.549,20.549,0,0,0-4.156,6.527,16.5,16.5,0,0,0-1.381,5.925,27.493,27.493,0,0,0,1.026,6.415,90.33,90.33,0,0,0-9.849-2.9,42.272,42.272,0,0,0-8.1-.867,46.162,46.162,0,0,0-4.993.214Z" transform="translate(-112.991 -6.887)" fill="#fff" fill-rule="evenodd"/>
      </g>
      <g id="Group_3468-2" data-name="Group 3468" transform="translate(0 159.737)">
        <path id="Path_5155" data-name="Path 5155" d="M-6853.772,439.882s19.442,10.151,27.9,24.311,5.909,32.332,5.909,32.332" transform="translate(6872.709 -426.563)" fill="none" stroke="#fff" stroke-width="1"/>
        <path id="Icon_ionic-ios-leaf" data-name="Icon ionic-ios-leaf" d="M11.915,10.3a7.123,7.123,0,0,0-2.6-6.672,17.626,17.626,0,0,0-6-3.2A13.925,13.925,0,0,0,.243.007c-.4.039.5.547.036.06C-.4-.65-.04,8.04,3.589,11.355a6.38,6.38,0,0,0,6.634,1.283,3.871,3.871,0,0,0,1.355-1.283c.052-.166.1-.306.178-.569C11.591,11.364,11.915,10.3,11.915,10.3ZM7.222,8.19C4.572,7.4,5.938,8.022,4.444,6.48c-.123-.126-.133-.013,0,.1,1.47,1.211-1.574.285,1.3,1.236l1.36.563Z" transform="translate(21.647 31.595) rotate(-47)" fill="#fff"/>
        <path id="Icon_ionic-ios-leaf-2" data-name="Icon ionic-ios-leaf" d="M11.915,10.3a7.123,7.123,0,0,0-2.6-6.672,17.626,17.626,0,0,0-6-3.2A13.925,13.925,0,0,0,.243.007c-.4.039.5.547.036.06C-.4-.65-.04,8.04,3.589,11.355a6.38,6.38,0,0,0,6.634,1.283,3.871,3.871,0,0,0,1.355-1.283c.052-.166.1-.306.178-.569C11.591,11.364,11.915,10.3,11.915,10.3ZM7.222,8.19C4.572,7.4,5.938,8.022,4.444,6.48c-.123-.126-.133-.013,0,.1,1.47,1.211-1.574.285,1.3,1.236l1.36.563Z" transform="matrix(0.719, -0.695, 0.695, 0.719, 29.517, 42.913)" fill="#fff"/>
        <path id="Icon_ionic-ios-leaf-3" data-name="Icon ionic-ios-leaf" d="M10.049,9.49A6.878,6.878,0,0,0,7.854,3.343,14.508,14.508,0,0,0,2.791.4,10.819,10.819,0,0,0,.2.006c-.334.036.418.5.03.055-.57-.66-.269,7.345,2.792,10.4a5.028,5.028,0,0,0,5.6,1.181,3.43,3.43,0,0,0,1.143-1.181c.044-.153.081-.282.151-.525C9.776,10.468,10.049,9.49,10.049,9.49ZM6.091,7.545C3.856,6.813,5.008,7.39,3.748,5.97c-.1-.116-.112-.012,0,.089,1.24,1.115-1.327.262,1.1,1.139L6,7.716Z" transform="translate(36.019 57.07) rotate(-45)" fill="#fff"/>
        <path id="Icon_ionic-ios-leaf-4" data-name="Icon ionic-ios-leaf" d="M11.915,10.3a7.123,7.123,0,0,0-2.6-6.672,17.626,17.626,0,0,0-6-3.2A13.925,13.925,0,0,0,.243.007c-.4.039.5.547.036.06C-.4-.65-.04,8.04,3.589,11.355a6.38,6.38,0,0,0,6.634,1.283,3.871,3.871,0,0,0,1.355-1.283c.052-.166.1-.306.178-.569C11.591,11.364,11.915,10.3,11.915,10.3ZM7.222,8.19C4.572,7.4,5.938,8.022,4.444,6.48c-.123-.126-.133-.013,0,.1,1.47,1.211-1.574.285,1.3,1.236l1.36.563Z" transform="translate(8.272 22.739) rotate(-47)" fill="#fff"/>
        <path id="Icon_ionic-ios-leaf-5" data-name="Icon ionic-ios-leaf" d="M11.915,10.3a7.123,7.123,0,0,0-2.6-6.672,17.626,17.626,0,0,0-6-3.2A13.925,13.925,0,0,0,.243.007c-.4.039.5.547.036.06C-.4-.65-.04,8.04,3.589,11.355a6.38,6.38,0,0,0,6.634,1.283,3.871,3.871,0,0,0,1.355-1.283c.052-.166.1-.306.178-.569C11.591,11.364,11.915,10.3,11.915,10.3ZM7.222,8.19C4.572,7.4,5.938,8.022,4.444,6.48c-.123-.126-.133-.013,0,.1,1.47,1.211-1.574.285,1.3,1.236l1.36.563Z" transform="translate(22.755 0) rotate(17)" fill="#fff"/>
        <path id="Icon_ionic-ios-leaf-6" data-name="Icon ionic-ios-leaf" d="M11.915,10.3a7.123,7.123,0,0,0-2.6-6.672,17.626,17.626,0,0,0-6-3.2A13.925,13.925,0,0,0,.243.007c-.4.039.5.547.036.06C-.4-.65-.04,8.04,3.589,11.355a6.38,6.38,0,0,0,6.634,1.283,3.871,3.871,0,0,0,1.355-1.283c.052-.166.1-.306.178-.569C11.591,11.364,11.915,10.3,11.915,10.3ZM7.222,8.19C4.572,7.4,5.938,8.022,4.444,6.48c-.123-.126-.133-.013,0,.1,1.47,1.211-1.574.285,1.3,1.236l1.36.563Z" transform="translate(0 5.465) rotate(-26)" fill="#fff"/>
        <path id="Icon_ionic-ios-leaf-7" data-name="Icon ionic-ios-leaf" d="M11.915,10.3a7.123,7.123,0,0,0-2.6-6.672,17.626,17.626,0,0,0-6-3.2A13.925,13.925,0,0,0,.243.007c-.4.039.5.547.036.06C-.4-.65-.04,8.04,3.589,11.355a6.38,6.38,0,0,0,6.634,1.283,3.871,3.871,0,0,0,1.355-1.283c.052-.166.1-.306.178-.569C11.591,11.364,11.915,10.3,11.915,10.3ZM7.222,8.19C4.572,7.4,5.938,8.022,4.444,6.48c-.123-.126-.133-.013,0,.1,1.47,1.211-1.574.285,1.3,1.236l1.36.563Z" transform="translate(38.523 6.222) rotate(29)" fill="#fff"/>
        <path id="Icon_ionic-ios-leaf-8" data-name="Icon ionic-ios-leaf" d="M8.951,6.77A7.123,7.123,0,0,0,6.348.1C5.405-.679,3.813,3.323,1.9,5.693.859,6.957-.965,6.372.625,7.824A6.38,6.38,0,0,0,7.259,9.107,3.871,3.871,0,0,0,8.614,7.824c.052-.166.1-.306.178-.569C8.627,7.833,8.951,6.77,8.951,6.77Z" transform="translate(55.124 26.937) rotate(66)" fill="#fff"/>
        <path id="Icon_ionic-ios-leaf-9" data-name="Icon ionic-ios-leaf" d="M11.915,10.3a7.123,7.123,0,0,0-2.6-6.672,17.626,17.626,0,0,0-6-3.2A13.925,13.925,0,0,0,.243.007c-.4.039.5.547.036.06C-.4-.65-.04,8.04,3.589,11.355a6.38,6.38,0,0,0,6.634,1.283,3.871,3.871,0,0,0,1.355-1.283c.052-.166.1-.306.178-.569C11.591,11.364,11.915,10.3,11.915,10.3ZM7.222,8.19C4.572,7.4,5.938,8.022,4.444,6.48c-.123-.126-.133-.013,0,.1,1.47,1.211-1.574.285,1.3,1.236l1.36.563Z" transform="matrix(0.259, 0.966, -0.966, 0.259, 65.718, 42.729)" fill="#fff"/>
      </g>
    </g>
    <g id="Group_3471" data-name="Group 3471" transform="translate(522.481 605.702)" opacity="0.2">
      <g id="group_3468-3" data-name="group_3468" transform="translate(23.721 0)">
        <path id="Path_5151-2" data-name="Path 5151" d="M138.6,112.994c.181-.114.141-.181.363-.328.671-.439.392-.571-.067-2.42-.181-.709-.3-1.378-.448-2.1-.277-1.394-.493-2.8-.707-4.313-.107-.751-.169-1.476-.236-2.228a47.818,47.818,0,0,1,4.312-23.815,99.445,99.445,0,0,1,5.515-10.949c.169-.276.294-.544.47-.838.33-.544.615-1.088.936-1.608l2.781-4.788.956-1.586,6.186-10.164c.17-.286.343-.511.509-.791.685-1.149,1.465-2.272,2.2-3.385a24.269,24.269,0,0,1,2.977-4,12.994,12.994,0,0,1,1.6,2.069c.181.274.314.493.5.76.843,1.215,1.545,2.511,2.3,3.778l4.69,8.79L175.4,59.2a81.1,81.1,0,0,1,5.258,15.23c.158.629.274,1.269.439,1.935.337,1.343.544,2.638.772,4.021a86.122,86.122,0,0,1,1.07,15.321c0,.413-.034.852-.031,1.211s-.065.878-.1,1.269c.43-.118,1.4-1.771,1.59-2.09,3.445-5.711,3.051-14.429,2.245-20.8-.2-1.608-.5-3.211-.76-4.741-.134-.78-.319-1.548-.461-2.274-.584-3-1.461-5.925-2.266-8.846-.2-.725-.437-1.432-.664-2.159-.43-1.382-.885-2.834-1.409-4.188-.393-1.017-.709-2.056-1.122-3.07-.147-.363-.27-.647-.412-1.012l-1.213-2.993a74.011,74.011,0,0,0-8.958-15.926l-.945-1.208a27.741,27.741,0,0,0-3.481-3.778c-.261-.245-.495-.471-.758-.716l-1.489-1.394a7.073,7.073,0,0,1-1.015-1.148c-.5-.743-.437-.386-2.029-.107-.461.082-.419.062-.528.562-.076.354-.136.624-.219.921l-.974,3.575a83.519,83.519,0,0,1-3.472,9.943l-1.363,3.118a82.073,82.073,0,0,1-4.533,8.763c-.277.461-.6.943-.823,1.392-.419.849-2.366,3.715-3,4.739-.684,1.1-1.45,2.176-2.2,3.251-.317.453-.6.841-.917,1.284l-6.389,8.957c-1.561,2.176-2.939,4.433-4.328,6.723A37.1,37.1,0,0,0,125.7,90c-.034.431-.094.687-.143,1.017-.044.29.018.616-.018,1.015a24.456,24.456,0,0,0,.533,7.542c1.22,4.609,4.061,6.164,7.446,8.686l2.444,1.94c.227.2.363.335.562.528l1.588,1.664c.127.149.384.515.48.6Z" transform="translate(-71.308 -21.403)" fill="#fff" fill-rule="evenodd"/>
        <path id="Path_5152-2" data-name="Path 5152" d="M154.531,61.028a72.839,72.839,0,0,0,6.212,4.17l4.814,3c1.88,1.122,4.152,2.62,5.983,3.835l1.994,1.322c6.527,4.923,15.774,9.388,22.968,13.671,2.435,1.467,4.8,3.068,7.252,4.533l1.6,1c.283.17.577.339.854.515a19.422,19.422,0,0,1-2.306,5,17.445,17.445,0,0,1-3.351,3.775,15.821,15.821,0,0,1-6.164,3.182c-.428.116-.8.2-1.222.3a26.884,26.884,0,0,1-11.363-.29,34.317,34.317,0,0,1-9.444-3.72l-1.994-1.2a74.745,74.745,0,0,1-7.6-5.294c-.321-.252-.571-.464-.888-.725-.165-.134-.274-.208-.43-.344s-.276-.25-.446-.388a26.531,26.531,0,0,1-2.507-2.3c-.656-.684-1.746-1.681-2.337-2.388a30.205,30.205,0,0,0-2.382-2.408,12.224,12.224,0,0,0-2.9-1.971,15.807,15.807,0,0,0-2.339-.907c-.917-.279-1.7-.43-2.705-.651-.475-.105-1.006-.167-1.43-.259-.671-.145-2.272-.325-3.021-.383-.6-.047-.937-.138-1.519-.181a23.868,23.868,0,0,0,2.643,5.621,29.31,29.31,0,0,0,2.125,3.042l3.96,4.5a37.052,37.052,0,0,0,3.963,3.6c1.61,1.269,3.2,2.558,4.915,3.679l2.649,1.706c.446.323.87.508,1.353.8a62.792,62.792,0,0,0,10.335,4.971c1.111.408,2.159.789,3.3,1.153a56.439,56.439,0,0,0,8,1.994c1.008.165,1.955.335,2.99.421h.049l3.3.259a37.178,37.178,0,0,0,6.444-.363c.627-.109,1.1-.181,1.7-.3a26,26,0,0,0,4.714-1.418,20.686,20.686,0,0,0,5.325-3.059,14.332,14.332,0,0,0,1.153-.939c.363-.379.7-.645,1.068-1.039a26.49,26.49,0,0,0,6.594-13.085,57.164,57.164,0,0,0,.977-8.148c-.47-.3-11.622-4.874-12.4-5.164-.872-.325-2.246-.664-3.218-.983-2.692-.883-5.4-1.777-7.994-2.886l-1.931-.78c-1.731-.627-4.781-2.042-6.668-2.834-2.225-.934-4.368-1.956-6.594-2.9-1.287-.544-2.478-1.088-3.769-1.632-2.593-1.088-5.091-2.154-7.753-3.151a103.711,103.711,0,0,0-11.4-3.706,7.188,7.188,0,0,0-1.157-.256Z" transform="translate(-23.148 111.066)" fill="#fff" fill-rule="evenodd"/>
        <path id="Path_5153-2" data-name="Path 5153" d="M328.057,54.7l-.265,3.367a82.1,82.1,0,0,1-3.579,17.723,94.47,94.47,0,0,1-3.543,9.791L319.245,88.9c-.99,2.357-2.2,4.738-3.385,6.995l-2.649,4.875-4.594,7.58c-.138.216-.225.314-.363.544l-.709,1.111c-.252.363-.488.738-.743,1.14-.123.181-.234.346-.363.544s-.218.344-.363.544c-1.677,2.375-2.972,4.212-4.734,6.458l-5.162,5.885c-.306.328-.6.636-.9.961s-.577.638-.894.968c-9.937,10.786-22.542,23.091-36.646,28.736l-5.129,1.994c-.861.35-1.643.669-2.507,1.017a22.135,22.135,0,0,1-8.226,2.3c-1.032.15-1.994.288-3,.446.092-.123,2.357-1.536,2.814-1.907l3.376-2.567a42.338,42.338,0,0,0,4.058-2.6c.172-.136.243-.156.408-.286a3.311,3.311,0,0,1,.363-.276c.274-.181.461-.372.76-.571l2.6-2.159c.528-.566,1.19-1.023,1.757-1.548.158-.145.181-.216.345-.363.129-.114.216-.181.346-.292l1.407-1.269c.509-.43.965-.823,1.474-1.257a21.223,21.223,0,0,1,1.867-1.49L262.325,143c.167-.123.238-.147.406-.288a2.818,2.818,0,0,1,.363-.265,26.423,26.423,0,0,0,2.526-2.252c.114-.123.209-.181.335-.3.928-.85,1.764-1.826,2.672-2.7.247-.238.457-.477.685-.725l1.955-2.083c.12-.125.217-.252.332-.375l2.226-2.457c.888-.93,1.717-1.925,2.558-2.9.428-.495.814-.959,1.244-1.45l3.713-4.389c2.034-2.5,4.17-4.93,6.03-7.573.2-.286.363-.5.571-.787,1.24-1.753,2.538-3.459,3.652-5.3a4.346,4.346,0,0,1,.252-.4c.863-1.191,2.357-3.769,3.16-5.109,2.464-4.088,4.66-8.34,6.719-12.659,1.217-2.558,2.375-5.131,3.358-7.8,1.014-2.734,2.087-5.483,2.9-8.309a44.68,44.68,0,0,0,.894-4.779l2.036-12.11c-.074.014-.049-.013-.151.1-.3.328-1.088,1.641-1.982,2.611a36.783,36.783,0,0,1-4.007,3.213l-.669.546c-1.521,1.305-2.741,2.924-4.351,4.132-.145.107-.218.141-.372.261-.792.6-1.661,1.11-2.506,1.632l-2.888,1.889c-.488.341-.961.606-1.45.946s-.965.606-1.451.943c-.248.181-.479.314-.725.468L286.011,77.5c-.27.172-.468.279-.738.455L266.912,88.046c-2.248,1.119-5.439,2.876-7.675,4.123l-6.027,3.492c-1.978,1.177-3.907,2.455-5.854,3.686-2.314,1.463-5.193,3.394-7.434,5.1l-5.72,4.469a24.863,24.863,0,0,0-1.976,1.643,14.485,14.485,0,0,1-1.269,1.137l-2.2,2.067c-.892.907-1.853,1.788-2.691,2.747-.4.451-.771.839-1.159,1.269s-.774.849-1.137,1.3a62.667,62.667,0,0,0-6.1,8.61,48.7,48.7,0,0,0-5.575,14.548,22.953,22.953,0,0,0-.553,3.305c-.034.49-.123.685-.156,1.14-.058.805-.123,1.606-.181,2.411l-.054,2.243c.216,1.668,1.088,5.751,1.45,7.773a8.774,8.774,0,0,0,.836,2.132l2.691,6.11a24.738,24.738,0,0,0,2.127,3.807c.792,1.039,1.53,2.486,2.286,3.675.107.169.163.23.256.375l2.176,3.111c.774,1.195,2.819,3.539,3.773,4.658l3.177,3.508c1.284,1.327,2.616,2.642,3.989,3.875,1.177,1.053,2.357,2.158,3.6,3.149,1.465,1.168,2.912,2.341,4.446,3.429l1.45,1.017c.257.181.482.319.736.5l3.775,2.4a58.688,58.688,0,0,0,13.906,6.067l2.014.531c.544.172,2.99,1.3,3.477,1.53.314.15.544.243.868.384a7.909,7.909,0,0,0,.823.363,9.126,9.126,0,0,1-2.11.024c-.647-.053-1.527,0-2.163-.036-1.494-.1-2.983-.111-4.46-.225l-4.571-.363c-.725-.054-1.576-.083-2.286-.181-.363-.049-.624-.114-1.075-.147-.35-.027-.8-.04-1.14-.094-1.389-.225-2.963-.319-4.313-.58l-1.632-.2c-.87-.138-1.742-.221-2.627-.424-.7-.156-1.38-.2-2.083-.354l-10.07-2.061A153.84,153.84,0,0,1,203.27,196.4c-1.9-.863-3.782-1.684-5.655-2.633-23.688-12.131-28.532-23.545-39-41.684-.363-.66-.907-1.075-1.008-1.392-.141-.446-.39-.348-.477-.78a12.608,12.608,0,0,0-.849-2.649c-.181-.379-.325-.756-.5-1.115a82.808,82.808,0,0,0-3.907-7.388l-.6-1.03c-1.358-2.381-2.85-4.667-4.313-6.98-1.05-1.663-2.208-3.251-3.3-4.9a28.71,28.71,0,0,0-2.176-2.7,3.5,3.5,0,0,0-.4-.428l-.81-.849a37.65,37.65,0,0,0-7.053-5.407l-1.088-.607c-.765-.386-1.5-.778-2.274-1.137a40.2,40.2,0,0,0-7.671-2.629,45.884,45.884,0,0,0-5.969-1.008l-3.235-.252a19.241,19.241,0,0,1,2.031-3.376c.39-.544.758-1.014,1.189-1.521l1.26-1.373,3.22-2.749c.154-.105.238-.163.375-.252a30.248,30.248,0,0,1,7.865-3.766l1.969-.531a37.4,37.4,0,0,1,4.315-.709,41.93,41.93,0,0,1,6-.123c1.784.15,3.336.325,5.06.6a41.818,41.818,0,0,1,7.655,2.049,44.422,44.422,0,0,1,5.668,2.5c.58.31,1.168.6,1.735.946l1.708,1.032c1.664,1,3.211,2.138,4.792,3.251a39.1,39.1,0,0,0,6.335,4.366c.58.19.455.125.814.544a13.756,13.756,0,0,0,5.867,3.579,33.243,33.243,0,0,0,4.288,1.195c5.943,1.133,12.657,1.451,18.3-.845a30.931,30.931,0,0,0,3.5-1.65c1.14-.638,2.159-1.269,3.22-1.994,1.182-.8,2.286-1.655,3.4-2.538,1.327-1.048,2.611-2.176,3.9-3.264l17.357-16.3c.517-.544,2.442-2.1,3.142-2.7l1.469-1.195c.651-.558,2.2-1.813,2.95-2.3.181-.114.23-.19.39-.308l2.667-1.873c.281-.2.5-.341.78-.544,1.026-.709,2.114-1.327,3.158-1.994,1.327-.839,2.752-1.572,4.15-2.286l5.2-2.587c.6-.3,1.124-.529,1.724-.823s1.131-.529,1.726-.823l3.956-1.886c.16-.08.257-.114.424-.2l2.593-1.269c3.137-1.566,6.193-3.216,9.247-4.921l3.282-1.915c1.372-.787,2.694-1.654,4.027-2.5.283-.181.528-.346.8-.522s.491-.306.761-.491l4.62-3.195c.257-.181.5-.381.752-.575l1.49-1.088c.141-.114.23-.212.377-.319l1.8-1.429c.169-.138.243-.154.408-.286l4.9-4.25c.138-.134.158-.181.31-.328,1.062-.939,2.025-1.973,3.044-2.955.123-.116.2-.207.314-.326l3.189-3.481,4.123-5.16c1.877-2.642,3.1-4.5,4.814-7.336l2.388-4.351a3.491,3.491,0,0,1,.839-.408,4.033,4.033,0,0,0,.335.6,51.337,51.337,0,0,1,5.724,14.662,66.9,66.9,0,0,1,1.3,9.142,44.927,44.927,0,0,1,.112,5c-.025.363.031.486,0,.89a5.333,5.333,0,0,0-.034.858,1.427,1.427,0,0,0,.013.227ZM133.812,103.4a19.985,19.985,0,0,1,3.264-.276,14.022,14.022,0,0,1,3.858.464,7.813,7.813,0,0,1,2.386,1.072c.3.254-.025.279-.513.263a6.377,6.377,0,0,0-1.541.044c-.4.105-.562.375-.725.384s-.332-.238-.707-.5a5.332,5.332,0,0,0-1.924-.76c-.963-.212-2.3-.363-3.2-.461s-1.367-.129-.89-.234Zm-5.468,3.044c.252-.606.363.181,1.238,1.044a10.128,10.128,0,0,0,4.491,2.283,12.427,12.427,0,0,0,6.128-.062,43.788,43.788,0,0,0,5.091-2.326,15.264,15.264,0,0,1,5.41-1.026c2.016-.076,4.3.04,4.282.513s-2.348,1.3-4.056,2.4a20.523,20.523,0,0,0-3.96,3.711,28.453,28.453,0,0,1-3.39,3.118,4.17,4.17,0,0,1-3.048,1.088,16.6,16.6,0,0,1-4.942-1.235,29.327,29.327,0,0,1-4.681-2.448,5.461,5.461,0,0,1-2.852-3.053,8.021,8.021,0,0,1,.288-4.005Zm-14.082,3.659c.9-1.128,1.8-2.252,2.921-3.526a30.571,30.571,0,0,1,3.867-3.766,17.95,17.95,0,0,1,4.8-2.587c1.978-.769,4.509-1.557,7.038-2.357a63.3,63.3,0,0,0-4.9,4.578,10.274,10.274,0,0,0-2.078,3.264,8.251,8.251,0,0,0-.691,2.963,13.745,13.745,0,0,0,.513,3.207,45.164,45.164,0,0,0-4.924-1.45,21.133,21.133,0,0,0-4.049-.433,23.071,23.071,0,0,0-2.5.107Z" transform="translate(-112.991 -15.082)" fill="#fff" fill-rule="evenodd"/>
      </g>
      <g id="Group_3468-4" data-name="Group 3468" transform="translate(0 79.869)">
        <path id="Path_5155-2" data-name="Path 5155" d="M-6853.772,439.882s9.722,5.075,13.947,12.156,2.955,16.166,2.955,16.166" transform="translate(6863.241 -433.223)" fill="none" stroke="#fff" stroke-width="1"/>
        <path id="Icon_ionic-ios-leaf-10" data-name="Icon ionic-ios-leaf" d="M5.957,5.151a3.562,3.562,0,0,0-1.3-3.336,8.813,8.813,0,0,0-3-1.6A6.963,6.963,0,0,0,.121,0c-.2.019.248.274.018.03C-.2-.325-.02,4.02,1.794,5.678a3.19,3.19,0,0,0,3.317.641,1.936,1.936,0,0,0,.677-.641l.089-.285C5.8,5.682,5.957,5.151,5.957,5.151ZM3.611,4.1c-1.325-.4-.642-.084-1.389-.855-.061-.063-.067-.006,0,.048.735.605-.787.142.652.618l.68.282Z" transform="translate(10.824 15.797) rotate(-47)" fill="#fff"/>
        <path id="Icon_ionic-ios-leaf-11" data-name="Icon ionic-ios-leaf" d="M5.957,5.151a3.562,3.562,0,0,0-1.3-3.336,8.813,8.813,0,0,0-3-1.6A6.963,6.963,0,0,0,.121,0c-.2.019.248.274.018.03C-.2-.325-.02,4.02,1.794,5.678a3.19,3.19,0,0,0,3.317.641,1.936,1.936,0,0,0,.677-.641l.089-.285C5.8,5.682,5.957,5.151,5.957,5.151ZM3.611,4.1c-1.325-.4-.642-.084-1.389-.855-.061-.063-.067-.006,0,.048.735.605-.787.142.652.618l.68.282Z" transform="matrix(0.719, -0.695, 0.695, 0.719, 14.759, 21.456)" fill="#fff"/>
        <path id="Icon_ionic-ios-leaf-12" data-name="Icon ionic-ios-leaf" d="M5.024,4.745a3.439,3.439,0,0,0-1.1-3.073A7.254,7.254,0,0,0,1.4.2,5.409,5.409,0,0,0,.1,0C-.065.021.311.255.117.031-.167-.3-.017,3.7,1.513,5.23a2.514,2.514,0,0,0,2.8.591,1.715,1.715,0,0,0,.571-.591l.075-.262C4.888,5.234,5.024,4.745,5.024,4.745ZM3.045,3.773C1.928,3.407,2.5,3.7,1.874,2.985c-.052-.058-.056-.006,0,.044.62.558-.664.131.55.569L3,3.858Z" transform="translate(18.009 28.535) rotate(-45)" fill="#fff"/>
        <path id="Icon_ionic-ios-leaf-13" data-name="Icon ionic-ios-leaf" d="M5.957,5.151a3.562,3.562,0,0,0-1.3-3.336,8.813,8.813,0,0,0-3-1.6A6.963,6.963,0,0,0,.121,0c-.2.019.248.274.018.03C-.2-.325-.02,4.02,1.794,5.678a3.19,3.19,0,0,0,3.317.641,1.936,1.936,0,0,0,.677-.641l.089-.285C5.8,5.682,5.957,5.151,5.957,5.151ZM3.611,4.1c-1.325-.4-.642-.084-1.389-.855-.061-.063-.067-.006,0,.048.735.605-.787.142.652.618l.68.282Z" transform="translate(4.136 11.37) rotate(-47)" fill="#fff"/>
        <path id="Icon_ionic-ios-leaf-14" data-name="Icon ionic-ios-leaf" d="M5.957,5.151a3.562,3.562,0,0,0-1.3-3.336,8.813,8.813,0,0,0-3-1.6A6.963,6.963,0,0,0,.121,0c-.2.019.248.274.018.03C-.2-.325-.02,4.02,1.794,5.678a3.19,3.19,0,0,0,3.317.641,1.936,1.936,0,0,0,.677-.641l.089-.285C5.8,5.682,5.957,5.151,5.957,5.151ZM3.611,4.1c-1.325-.4-.642-.084-1.389-.855-.061-.063-.067-.006,0,.048.735.605-.787.142.652.618l.68.282Z" transform="translate(11.378 0) rotate(17)" fill="#fff"/>
        <path id="Icon_ionic-ios-leaf-15" data-name="Icon ionic-ios-leaf" d="M5.957,5.151a3.562,3.562,0,0,0-1.3-3.336,8.813,8.813,0,0,0-3-1.6A6.963,6.963,0,0,0,.121,0c-.2.019.248.274.018.03C-.2-.325-.02,4.02,1.794,5.678a3.19,3.19,0,0,0,3.317.641,1.936,1.936,0,0,0,.677-.641l.089-.285C5.8,5.682,5.957,5.151,5.957,5.151ZM3.611,4.1c-1.325-.4-.642-.084-1.389-.855-.061-.063-.067-.006,0,.048.735.605-.787.142.652.618l.68.282Z" transform="translate(0 2.733) rotate(-26)" fill="#fff"/>
        <path id="Icon_ionic-ios-leaf-16" data-name="Icon ionic-ios-leaf" d="M5.957,5.151a3.562,3.562,0,0,0-1.3-3.336,8.813,8.813,0,0,0-3-1.6A6.963,6.963,0,0,0,.121,0c-.2.019.248.274.018.03C-.2-.325-.02,4.02,1.794,5.678a3.19,3.19,0,0,0,3.317.641,1.936,1.936,0,0,0,.677-.641l.089-.285C5.8,5.682,5.957,5.151,5.957,5.151ZM3.611,4.1c-1.325-.4-.642-.084-1.389-.855-.061-.063-.067-.006,0,.048.735.605-.787.142.652.618l.68.282Z" transform="translate(19.262 3.111) rotate(29)" fill="#fff"/>
        <path id="Icon_ionic-ios-leaf-17" data-name="Icon ionic-ios-leaf" d="M4.475,3.385A3.562,3.562,0,0,0,3.174.049C2.7-.339,1.906,1.661.95,2.847c-.521.632-1.432.34-.638,1.066a3.19,3.19,0,0,0,3.317.641,1.936,1.936,0,0,0,.677-.641L4.4,3.627C4.314,3.916,4.475,3.385,4.475,3.385Z" transform="translate(27.562 13.468) rotate(66)" fill="#fff"/>
        <path id="Icon_ionic-ios-leaf-18" data-name="Icon ionic-ios-leaf" d="M5.957,5.151a3.562,3.562,0,0,0-1.3-3.336,8.813,8.813,0,0,0-3-1.6A6.963,6.963,0,0,0,.121,0c-.2.019.248.274.018.03C-.2-.325-.02,4.02,1.794,5.678a3.19,3.19,0,0,0,3.317.641,1.936,1.936,0,0,0,.677-.641l.089-.285C5.8,5.682,5.957,5.151,5.957,5.151ZM3.611,4.1c-1.325-.4-.642-.084-1.389-.855-.061-.063-.067-.006,0,.048.735.605-.787.142.652.618l.68.282Z" transform="matrix(0.259, 0.966, -0.966, 0.259, 32.859, 21.365)" fill="#fff"/>
      </g>
    </g>
  </g>
</svg>
