<svg xmlns="http://www.w3.org/2000/svg" width="338" height="318.049" viewBox="0 0 338 318.049">
  <g id="Group_3873" data-name="Group 3873" transform="translate(-177.31 -57.331)" opacity="0.44">
    <g id="Group_3469" data-name="Group 3469" transform="translate(177.31 57.331)" opacity="0.2">
      <g id="group_3468" transform="translate(33.567 0)">
        <path id="Path_5151" data-name="Path 5151" d="M144.055,151.018c.257-.162.2-.257.513-.464.949-.621.554-.808-.1-3.425-.257-1-.428-1.95-.634-2.979-.393-1.973-.7-3.964-1-6.1-.151-1.062-.239-2.089-.334-3.153a67.669,67.669,0,0,1,6.1-33.7A140.732,140.732,0,0,1,156.412,85.7c.239-.39.416-.77.665-1.185.467-.77.87-1.539,1.324-2.276l3.936-6.776,1.352-2.245,8.754-14.384c.241-.405.485-.724.721-1.119.97-1.627,2.073-3.215,3.117-4.79a34.347,34.347,0,0,1,4.213-5.665,18.388,18.388,0,0,1,2.263,2.928c.257.387.444.7.706,1.075,1.193,1.719,2.186,3.554,3.261,5.347l6.638,12.439,2.779,5.847a114.77,114.77,0,0,1,7.441,21.552c.223.89.387,1.8.621,2.738.477,1.9.77,3.733,1.093,5.691a121.865,121.865,0,0,1,1.514,21.681c0,.585-.049,1.206-.044,1.714s-.092,1.242-.136,1.8c.608-.167,1.981-2.507,2.25-2.958,4.875-8.082,4.318-20.418,3.176-29.432-.287-2.276-.7-4.544-1.075-6.709-.19-1.1-.452-2.191-.652-3.217-.826-4.244-2.068-8.385-3.207-12.518-.282-1.026-.618-2.027-.939-3.056-.608-1.955-1.252-4.01-1.994-5.927-.557-1.439-1-2.91-1.588-4.344-.208-.513-.382-.916-.582-1.432L200.3,56.233A104.735,104.735,0,0,0,187.625,33.7l-1.337-1.709a39.256,39.256,0,0,0-4.926-5.347c-.369-.346-.7-.667-1.073-1.013l-2.106-1.973a10.008,10.008,0,0,1-1.437-1.624c-.708-1.052-.618-.547-2.871-.151-.652.115-.593.087-.747.8-.108.5-.192.883-.31,1.3l-1.378,5.06a118.194,118.194,0,0,1-4.913,14.071L164.6,47.52a116.14,116.14,0,0,1-6.414,12.4c-.393.652-.852,1.334-1.165,1.971-.593,1.2-3.348,5.257-4.246,6.707-.967,1.56-2.053,3.079-3.112,4.6-.449.641-.852,1.191-1.3,1.817L139.319,87.69c-2.209,3.079-4.159,6.273-6.124,9.514a52.5,52.5,0,0,0-7.395,21.273c-.049.611-.133.972-.2,1.439-.062.411.026.872-.026,1.437a34.61,34.61,0,0,0,.754,10.674c1.727,6.522,5.747,8.724,10.538,12.293l3.459,2.745c.321.282.513.475.8.747l2.248,2.355c.18.21.544.729.68.844Z" transform="translate(-48.832 -21.403)" fill="#fff" fill-rule="evenodd"/>
        <path id="Path_5152" data-name="Path 5152" d="M160.622,61.029a103.086,103.086,0,0,0,8.79,5.9l6.812,4.241c2.661,1.588,5.876,3.708,8.467,5.427l2.822,1.87c9.237,6.966,22.322,13.286,32.5,19.346,3.446,2.076,6.789,4.341,10.263,6.414l2.271,1.414c.4.241.816.48,1.208.729a27.486,27.486,0,0,1-3.264,7.074,24.685,24.685,0,0,1-4.742,5.342,22.389,22.389,0,0,1-8.724,4.5c-.605.164-1.137.29-1.729.428a38.045,38.045,0,0,1-16.08-.411,48.563,48.563,0,0,1-13.365-5.265l-2.822-1.7a105.778,105.778,0,0,1-10.758-7.492c-.454-.357-.808-.657-1.257-1.026-.234-.19-.387-.3-.608-.488s-.39-.354-.631-.549a37.557,37.557,0,0,1-3.548-3.256c-.929-.967-2.471-2.378-3.307-3.379a42.756,42.756,0,0,0-3.371-3.407,17.3,17.3,0,0,0-4.105-2.789,22.37,22.37,0,0,0-3.31-1.283c-1.3-.4-2.412-.608-3.828-.921-.672-.149-1.424-.236-2.024-.367-.949-.205-3.215-.459-4.275-.541-.849-.067-1.327-.195-2.15-.257a33.774,33.774,0,0,0,3.741,7.954,41.476,41.476,0,0,0,3.007,4.305l5.6,6.363a52.433,52.433,0,0,0,5.609,5.1c2.278,1.8,4.523,3.62,6.956,5.206l3.749,2.414c.631.457,1.232.718,1.914,1.131a88.861,88.861,0,0,0,14.625,7.035c1.573.577,3.056,1.116,4.665,1.632a79.864,79.864,0,0,0,11.325,2.822c1.427.234,2.766.475,4.231.6h.069l4.675.367a52.614,52.614,0,0,0,9.119-.513c.888-.154,1.562-.257,2.407-.421a36.8,36.8,0,0,0,6.671-2.006,29.274,29.274,0,0,0,7.536-4.328,20.27,20.27,0,0,0,1.632-1.329c.513-.536.993-.913,1.511-1.47a37.488,37.488,0,0,0,9.332-18.517A80.9,80.9,0,0,0,249.618,95.4c-.664-.421-16.447-6.9-17.547-7.307-1.234-.459-3.179-.939-4.554-1.391-3.81-1.25-7.646-2.514-11.312-4.085l-2.733-1.1c-2.45-.888-6.766-2.889-9.437-4.01-3.148-1.321-6.181-2.768-9.332-4.105-1.822-.77-3.507-1.539-5.334-2.309-3.669-1.539-7.2-3.048-10.971-4.459a146.77,146.77,0,0,0-16.136-5.244,10.175,10.175,0,0,0-1.637-.362Z" transform="translate(25.304 182.508)" fill="#fff" fill-rule="evenodd"/>
        <path id="Path_5153" data-name="Path 5153" d="M417.34,67.742l-.375,4.765a116.175,116.175,0,0,1-5.065,25.08,133.691,133.691,0,0,1-5.013,13.855l-2.017,4.7c-1.4,3.335-3.117,6.7-4.79,9.9l-3.749,6.9-6.5,10.727c-.2.305-.318.444-.513.77l-1,1.573c-.357.513-.69,1.044-1.052,1.614-.174.257-.331.49-.513.77s-.308.488-.513.77c-2.373,3.361-4.205,5.96-6.7,9.139l-7.3,8.329c-.434.464-.852.9-1.27,1.36s-.816.9-1.265,1.37c-14.063,15.264-31.9,32.678-51.859,40.665l-7.259,2.822c-1.219.5-2.325.947-3.548,1.439a31.324,31.324,0,0,1-11.641,3.251c-1.46.213-2.822.408-4.244.631.131-.174,3.336-2.173,3.982-2.7l4.778-3.633a59.9,59.9,0,0,0,5.742-3.677c.244-.192.344-.221.577-.405a4.677,4.677,0,0,1,.513-.39c.387-.257.652-.526,1.075-.808l3.674-3.056c.747-.8,1.683-1.447,2.486-2.191.223-.205.257-.305.487-.513.182-.162.305-.257.49-.413l1.991-1.8c.721-.608,1.365-1.165,2.086-1.778a30.014,30.014,0,0,1,2.643-2.109l2.651-2c.236-.174.336-.208.575-.408a3.99,3.99,0,0,1,.513-.375,37.4,37.4,0,0,0,3.574-3.187c.162-.174.3-.257.475-.421,1.314-1.2,2.5-2.584,3.782-3.818.349-.336.647-.675.97-1.026l2.766-2.948c.169-.177.308-.357.47-.531l3.151-3.477c1.257-1.316,2.43-2.725,3.62-4.105.605-.7,1.152-1.357,1.76-2.053l5.255-6.212c2.879-3.538,5.9-6.976,8.534-10.717.282-.405.513-.706.808-1.114,1.755-2.481,3.592-4.9,5.167-7.495a6.157,6.157,0,0,1,.357-.559c1.221-1.686,3.335-5.334,4.472-7.23,3.487-5.786,6.594-11.8,9.509-17.914,1.722-3.62,3.361-7.261,4.752-11.033,1.434-3.869,2.953-7.759,4.105-11.759a63.215,63.215,0,0,0,1.265-6.763l2.881-17.137c-.105.021-.069-.018-.213.139-.418.464-1.539,2.322-2.8,3.695a52.056,52.056,0,0,1-5.67,4.547l-.947.772c-2.153,1.847-3.879,4.139-6.158,5.847-.205.151-.308.2-.526.369-1.121.847-2.35,1.57-3.546,2.309l-4.087,2.674c-.69.482-1.36.857-2.053,1.339s-1.365.857-2.053,1.334c-.352.257-.677.444-1.026.662l-6.158,3.9c-.382.244-.662.4-1.044.644l-25.984,14.276c-3.182,1.583-7.7,4.069-10.861,5.835l-8.529,4.942c-2.8,1.665-5.529,3.474-8.285,5.216-3.274,2.071-7.348,4.8-10.52,7.212l-8.1,6.325a35.2,35.2,0,0,0-2.8,2.325,20.5,20.5,0,0,1-1.8,1.609l-3.117,2.925c-1.262,1.283-2.622,2.53-3.808,3.887-.562.639-1.09,1.188-1.64,1.8s-1.1,1.2-1.609,1.845a88.68,88.68,0,0,0-8.626,12.185,68.913,68.913,0,0,0-7.89,20.588,32.471,32.471,0,0,0-.783,4.677c-.049.693-.174.97-.221,1.614-.082,1.139-.174,2.273-.257,3.412L251.9,204.5c.305,2.36,1.539,8.139,2.053,11a12.411,12.411,0,0,0,1.183,3.017l3.808,8.647a35.008,35.008,0,0,0,3.01,5.388c1.121,1.47,2.165,3.518,3.235,5.2.151.239.231.326.362.531l3.079,4.4c1.1,1.691,3.99,5.008,5.339,6.591l4.5,4.965c1.817,1.878,3.7,3.738,5.645,5.483,1.665,1.491,3.335,3.053,5.09,4.457,2.073,1.652,4.121,3.312,6.291,4.852l2.053,1.439c.364.257.682.452,1.042.706l5.342,3.4a83.055,83.055,0,0,0,19.68,8.585l2.851.752c.77.244,4.231,1.835,4.921,2.166.444.213.77.344,1.229.544a11.2,11.2,0,0,0,1.165.513,12.919,12.919,0,0,1-2.987.033c-.916-.074-2.16,0-3.061-.051-2.114-.139-4.221-.156-6.312-.318l-6.468-.513c-1.026-.077-2.23-.118-3.235-.257-.513-.069-.883-.162-1.522-.208-.5-.038-1.139-.056-1.614-.133-1.965-.318-4.193-.452-6.1-.821l-2.309-.287c-1.232-.195-2.466-.313-3.718-.6-.99-.221-1.952-.28-2.948-.5l-14.25-2.917a217.7,217.7,0,0,1-38.5-12.29c-2.694-1.221-5.352-2.384-8-3.726-33.522-17.168-40.378-33.319-55.19-58.99-.513-.934-1.283-1.522-1.427-1.971-.2-.631-.552-.493-.675-1.1a17.843,17.843,0,0,0-1.2-3.749c-.257-.536-.459-1.07-.706-1.578a117.182,117.182,0,0,0-5.529-10.455l-.847-1.457c-1.922-3.369-4.033-6.6-6.1-9.878-1.486-2.353-3.125-4.6-4.665-6.928a40.63,40.63,0,0,0-3.079-3.826,4.947,4.947,0,0,0-.57-.606l-1.147-1.2a53.281,53.281,0,0,0-9.981-7.651l-1.539-.86c-1.083-.546-2.122-1.1-3.217-1.609a56.89,56.89,0,0,0-10.856-3.72,64.935,64.935,0,0,0-8.446-1.427l-4.577-.357a27.232,27.232,0,0,1,2.874-4.777c.552-.77,1.072-1.434,1.683-2.153l1.783-1.942,4.557-3.89c.218-.149.336-.231.531-.357a42.8,42.8,0,0,1,11.13-5.329l2.786-.752a52.932,52.932,0,0,1,6.107-1,59.335,59.335,0,0,1,8.488-.174c2.525.213,4.721.459,7.161.844a59.177,59.177,0,0,1,10.833,2.9,62.861,62.861,0,0,1,8.021,3.538c.821.439,1.652.852,2.455,1.339l2.417,1.46c2.355,1.414,4.544,3.025,6.781,4.6a55.326,55.326,0,0,0,8.965,6.178c.821.269.644.177,1.152.77a19.467,19.467,0,0,0,8.3,5.065,47.043,47.043,0,0,0,6.068,1.691c8.411,1.6,17.912,2.053,25.9-1.2a43.77,43.77,0,0,0,4.96-2.335c1.614-.9,3.056-1.8,4.557-2.822,1.673-1.129,3.235-2.343,4.811-3.592,1.878-1.483,3.695-3.079,5.516-4.618l24.562-23.071c.731-.77,3.456-2.969,4.447-3.818l2.078-1.691c.921-.79,3.117-2.566,4.174-3.261.257-.162.326-.269.552-.436l3.774-2.65c.4-.287.706-.482,1.1-.77,1.452-1,2.992-1.878,4.47-2.822,1.878-1.188,3.895-2.225,5.873-3.235l7.356-3.661c.844-.426,1.591-.749,2.44-1.165s1.6-.749,2.443-1.165l5.6-2.668c.226-.113.364-.162.6-.277l3.669-1.8c4.439-2.217,8.765-4.552,13.085-6.963l4.644-2.709c1.942-1.114,3.813-2.34,5.7-3.538.4-.257.747-.49,1.129-.739s.7-.434,1.078-.7l6.538-4.521c.364-.257.706-.539,1.065-.813l2.109-1.539c.2-.162.326-.3.534-.452L372.4,64.15c.239-.195.344-.218.577-.405L379.9,57.73c.2-.19.223-.257.439-.464,1.5-1.329,2.866-2.792,4.308-4.182.174-.164.282-.292.444-.462l4.513-4.926,5.835-7.3c2.656-3.738,4.39-6.368,6.812-10.381l3.379-6.158a4.942,4.942,0,0,1,1.188-.577,5.724,5.724,0,0,0,.475.852,72.646,72.646,0,0,1,8.1,20.749,94.653,94.653,0,0,1,1.834,12.937,63.589,63.589,0,0,1,.159,7.074c-.036.513.044.688,0,1.26a7.55,7.55,0,0,0-.049,1.214,2,2,0,0,0,.018.321ZM142.456,136.669a28.279,28.279,0,0,1,4.618-.39,19.843,19.843,0,0,1,5.46.657,11.055,11.055,0,0,1,3.376,1.516c.431.359-.036.4-.726.372a9.024,9.024,0,0,0-2.181.062c-.57.149-.8.531-1.026.544s-.47-.336-1-.706a7.546,7.546,0,0,0-2.722-1.075c-1.362-.3-3.256-.513-4.531-.652s-1.935-.182-1.26-.331Zm-7.738,4.308c.357-.857.513.257,1.752,1.478a14.332,14.332,0,0,0,6.355,3.23,17.585,17.585,0,0,0,8.672-.087,61.97,61.97,0,0,0,7.2-3.292,21.6,21.6,0,0,1,7.656-1.452c2.853-.108,6.086.056,6.06.726s-3.323,1.84-5.74,3.394a29.043,29.043,0,0,0-5.6,5.252,40.262,40.262,0,0,1-4.8,4.413,5.9,5.9,0,0,1-4.313,1.539,23.489,23.489,0,0,1-6.994-1.747,41.5,41.5,0,0,1-6.625-3.464,7.728,7.728,0,0,1-4.036-4.321,11.351,11.351,0,0,1,.408-5.668Zm-19.928,5.178c1.27-1.6,2.543-3.187,4.133-4.99a43.262,43.262,0,0,1,5.473-5.329,25.4,25.4,0,0,1,6.794-3.661c2.8-1.088,6.381-2.2,9.96-3.335a89.6,89.6,0,0,0-6.928,6.479,14.54,14.54,0,0,0-2.94,4.618,11.677,11.677,0,0,0-.977,4.193,19.454,19.454,0,0,0,.726,4.539,63.916,63.916,0,0,0-6.969-2.053,29.91,29.91,0,0,0-5.729-.613,32.663,32.663,0,0,0-3.533.151Z" transform="translate(-112.991 -11.68)" fill="#fff" fill-rule="evenodd"/>
      </g>
      <g id="Group_3468-2" data-name="Group 3468" transform="translate(0 113.025)">
        <path id="Path_5155" data-name="Path 5155" d="M-6853.772,439.882s13.757,7.182,19.738,17.2,4.181,22.877,4.181,22.877" transform="translate(6867.172 -430.458)" fill="none" stroke="#fff" stroke-width="1"/>
        <path id="Icon_ionic-ios-leaf" data-name="Icon ionic-ios-leaf" d="M8.431,7.289A5.04,5.04,0,0,0,6.589,2.568,12.472,12.472,0,0,0,2.342.306,9.853,9.853,0,0,0,.172,0C-.109.032.523.392.2.047-.281-.46-.029,5.689,2.539,8.035a4.515,4.515,0,0,0,4.694.907,2.739,2.739,0,0,0,.959-.907l.126-.4C8.2,8.041,8.431,7.289,8.431,7.289ZM5.11,5.8c-1.875-.562-.909-.119-1.966-1.21-.087-.089-.094-.009,0,.068,1.04.857-1.114.2.923.875l.962.4Z" transform="translate(15.317 22.356) rotate(-47)" fill="#fff"/>
        <path id="Icon_ionic-ios-leaf-2" data-name="Icon ionic-ios-leaf" d="M8.431,7.289A5.04,5.04,0,0,0,6.589,2.568,12.472,12.472,0,0,0,2.342.306,9.853,9.853,0,0,0,.172,0C-.109.032.523.392.2.047-.281-.46-.029,5.689,2.539,8.035a4.515,4.515,0,0,0,4.694.907,2.739,2.739,0,0,0,.959-.907l.126-.4C8.2,8.041,8.431,7.289,8.431,7.289ZM5.11,5.8c-1.875-.562-.909-.119-1.966-1.21-.087-.089-.094-.009,0,.068,1.04.857-1.114.2.923.875l.962.4Z" transform="matrix(0.719, -0.695, 0.695, 0.719, 20.885, 30.364)" fill="#fff"/>
        <path id="Icon_ionic-ios-leaf-3" data-name="Icon ionic-ios-leaf" d="M7.11,6.715A4.867,4.867,0,0,0,5.557,2.366,10.266,10.266,0,0,0,1.975.282,7.655,7.655,0,0,0,.145,0c-.236.025.3.357.021.039-.4-.467-.19,5.2,1.976,7.358A3.557,3.557,0,0,0,6.1,8.238,2.427,2.427,0,0,0,6.909,7.4l.107-.371C6.917,7.407,7.11,6.715,7.11,6.715ZM4.31,5.339c-1.582-.518-.767-.11-1.658-1.115-.073-.082-.079-.008,0,.063.877.789-.939.186.779.806l.812.367Z" transform="translate(25.486 40.381) rotate(-45)" fill="#fff"/>
        <path id="Icon_ionic-ios-leaf-4" data-name="Icon ionic-ios-leaf" d="M8.431,7.289A5.04,5.04,0,0,0,6.589,2.568,12.472,12.472,0,0,0,2.342.306,9.853,9.853,0,0,0,.172,0C-.109.032.523.392.2.047-.281-.46-.029,5.689,2.539,8.035a4.515,4.515,0,0,0,4.694.907,2.739,2.739,0,0,0,.959-.907l.126-.4C8.2,8.041,8.431,7.289,8.431,7.289ZM5.11,5.8c-1.875-.562-.909-.119-1.966-1.21-.087-.089-.094-.009,0,.068,1.04.857-1.114.2.923.875l.962.4Z" transform="translate(5.853 16.09) rotate(-47)" fill="#fff"/>
        <path id="Icon_ionic-ios-leaf-5" data-name="Icon ionic-ios-leaf" d="M8.431,7.289A5.04,5.04,0,0,0,6.589,2.568,12.472,12.472,0,0,0,2.342.306,9.853,9.853,0,0,0,.172,0C-.109.032.523.392.2.047-.281-.46-.029,5.689,2.539,8.035a4.515,4.515,0,0,0,4.694.907,2.739,2.739,0,0,0,.959-.907l.126-.4C8.2,8.041,8.431,7.289,8.431,7.289ZM5.11,5.8c-1.875-.562-.909-.119-1.966-1.21-.087-.089-.094-.009,0,.068,1.04.857-1.114.2.923.875l.962.4Z" transform="translate(16.101 0) rotate(17)" fill="#fff"/>
        <path id="Icon_ionic-ios-leaf-6" data-name="Icon ionic-ios-leaf" d="M8.431,7.289A5.04,5.04,0,0,0,6.589,2.568,12.472,12.472,0,0,0,2.342.306,9.853,9.853,0,0,0,.172,0C-.109.032.523.392.2.047-.281-.46-.029,5.689,2.539,8.035a4.515,4.515,0,0,0,4.694.907,2.739,2.739,0,0,0,.959-.907l.126-.4C8.2,8.041,8.431,7.289,8.431,7.289ZM5.11,5.8c-1.875-.562-.909-.119-1.966-1.21-.087-.089-.094-.009,0,.068,1.04.857-1.114.2.923.875l.962.4Z" transform="translate(0 3.867) rotate(-26)" fill="#fff"/>
        <path id="Icon_ionic-ios-leaf-7" data-name="Icon ionic-ios-leaf" d="M8.431,7.289A5.04,5.04,0,0,0,6.589,2.568,12.472,12.472,0,0,0,2.342.306,9.853,9.853,0,0,0,.172,0C-.109.032.523.392.2.047-.281-.46-.029,5.689,2.539,8.035a4.515,4.515,0,0,0,4.694.907,2.739,2.739,0,0,0,.959-.907l.126-.4C8.2,8.041,8.431,7.289,8.431,7.289ZM5.11,5.8c-1.875-.562-.909-.119-1.966-1.21-.087-.089-.094-.009,0,.068,1.04.857-1.114.2.923.875l.962.4Z" transform="translate(27.258 4.403) rotate(29)" fill="#fff"/>
        <path id="Icon_ionic-ios-leaf-8" data-name="Icon ionic-ios-leaf" d="M6.333,4.791A5.04,5.04,0,0,0,4.492.07C3.825-.48,2.7,2.351,1.344,4.028c-.737.894-2.027.481-.9,1.508a4.515,4.515,0,0,0,4.694.907,2.739,2.739,0,0,0,.959-.907l.126-.4C6.1,5.542,6.333,4.791,6.333,4.791Z" transform="translate(39.004 19.06) rotate(66)" fill="#fff"/>
        <path id="Icon_ionic-ios-leaf-9" data-name="Icon ionic-ios-leaf" d="M8.431,7.289A5.04,5.04,0,0,0,6.589,2.568,12.472,12.472,0,0,0,2.342.306,9.853,9.853,0,0,0,.172,0C-.109.032.523.392.2.047-.281-.46-.029,5.689,2.539,8.035a4.515,4.515,0,0,0,4.694.907,2.739,2.739,0,0,0,.959-.907l.126-.4C8.2,8.041,8.431,7.289,8.431,7.289ZM5.11,5.8c-1.875-.562-.909-.119-1.966-1.21-.087-.089-.094-.009,0,.068,1.04.857-1.114.2.923.875l.962.4Z" transform="matrix(0.259, 0.966, -0.966, 0.259, 46.5, 30.234)" fill="#fff"/>
      </g>
    </g>
  </g>
</svg>
