<svg xmlns="http://www.w3.org/2000/svg" width="198.817" height="177.544" viewBox="0 0 198.817 177.544">
  <g id="Group_3371" data-name="Group 3371" transform="translate(-1786.119 -2017.403)">
    <path id="path4" d="M177.125,83.915a5.446,5.446,0,0,1,4.05,1.717,5.663,5.663,0,0,1,1.673,4.094,5.561,5.561,0,0,1-1.673,4.006,5.446,5.446,0,0,1-4.05,1.717h-17.7a7.19,7.19,0,0,0-3.874,4.491,7.974,7.974,0,0,0,.44,6.251,7.2,7.2,0,0,0,4.579,3.874,5.345,5.345,0,0,1,3.346,2.817,5.733,5.733,0,0,1,.352,4.4,5.542,5.542,0,0,1-2.157,2.905,5.732,5.732,0,0,1-3.3,1.057,5.545,5.545,0,0,1-1.761-.264,19.765,19.765,0,0,1-6.6-3.7,19.059,19.059,0,0,1-6.692-13.207,18.806,18.806,0,0,1,.969-7.748A19.012,19.012,0,0,1,156.17,84.356,6.346,6.346,0,0,1,157.49,84a8.708,8.708,0,0,1,1.233-.088h18.4Zm3.61,38.917a5.446,5.446,0,0,1-4.05-1.717,5.562,5.562,0,0,1-1.673-4.006V77.488a5.723,5.723,0,1,1,11.446,0V117.11a5.562,5.562,0,0,1-1.673,4.006,5.447,5.447,0,0,1-4.05,1.717Zm20.163,0a5.446,5.446,0,0,1-4.05-1.717,5.562,5.562,0,0,1-1.673-4.006V77.488a5.723,5.723,0,1,1,11.446,0V117.11a5.562,5.562,0,0,1-1.673,4.006,5.447,5.447,0,0,1-4.05,1.717Z" transform="translate(1721.965 2041.922)" fill="#fff" fill-rule="evenodd"/>
    <path id="path6" d="M150.78,73a18.839,18.839,0,0,1,2.2,8.629,5.723,5.723,0,1,1-11.446,0,8.581,8.581,0,0,0-1.012-3.522,14.952,14.952,0,0,0-3.214-4.226,17.992,17.992,0,0,0-4.975-3.434,13.81,13.81,0,0,0-5.327-1.321,8.946,8.946,0,0,0-4.4,1.013,13.928,13.928,0,0,0-4.05,3.126,18.631,18.631,0,0,0-4.094,7.352,23.975,23.975,0,0,0-.836,9.113V89.9l.088.088v34.6a5.723,5.723,0,1,1-11.446,0V90.609a34.47,34.47,0,0,1,1.321-13.691,29.188,29.188,0,0,1,6.516-11.4,25.9,25.9,0,0,1,8.1-5.987,19.868,19.868,0,0,1,9.157-1.849,24.056,24.056,0,0,1,5.019.7,27.6,27.6,0,0,1,4.93,1.761,30.006,30.006,0,0,1,8.013,5.547,37.9,37.9,0,0,1,3.082,3.478A20.805,20.805,0,0,1,150.78,73Zm12.238,29.144a5.712,5.712,0,0,1,5.723,5.723,5.372,5.372,0,0,1-1.673,4.006,5.592,5.592,0,0,1-4.05,1.629h-11.27v1.057q.088.528.132,1.012t.044.925a13.709,13.709,0,0,1-1.145,5.591,15.33,15.33,0,0,1-3.082,4.578,14.253,14.253,0,0,1-4.578,3.126,14.019,14.019,0,0,1-5.635,1.145,13.709,13.709,0,0,1-5.591-1.145,14.389,14.389,0,0,1-4.535-3.126,15.327,15.327,0,0,1-3.082-4.578,14.227,14.227,0,0,1,0-11.182,14.629,14.629,0,0,1,7.616-7.616,13.706,13.706,0,0,1,5.591-1.145h2.906v-11.8a5.592,5.592,0,0,1,1.629-4.05,5.475,5.475,0,0,1,4.094-1.673,5.415,5.415,0,0,1,3.962,1.673,5.516,5.516,0,0,1,1.673,4.05v11.8Zm-25.534,17.345a2.884,2.884,0,0,0,1.805-.572,3.312,3.312,0,0,0,1.1-1.541v-1.761a3.371,3.371,0,0,0-1.1-1.453,2.884,2.884,0,0,0-1.805-.572,2.857,2.857,0,0,0-2.905,2.906,2.96,2.96,0,0,0,.836,2.113A2.74,2.74,0,0,0,137.485,119.489Zm31.169,16.2a5.447,5.447,0,0,1-4.05-1.717,5.562,5.562,0,0,1-1.673-4.006V90.345a5.723,5.723,0,1,1,11.446,0v39.621a5.561,5.561,0,0,1-1.673,4.006A5.446,5.446,0,0,1,168.654,135.69Z" transform="translate(1684.035 2029.065)" fill="#f07c00" fill-rule="evenodd"/>
    <path id="path8" d="M219.619,83.915a5.447,5.447,0,0,1,4.05,1.717,5.663,5.663,0,0,1,1.673,4.094,5.562,5.562,0,0,1-1.673,4.006,5.446,5.446,0,0,1-4.05,1.717H208.173a11.546,11.546,0,0,1,.264,1.453,12.434,12.434,0,0,1,.088,1.453,13.706,13.706,0,0,1-1.145,5.591,14.508,14.508,0,0,1-7.66,7.616,14.021,14.021,0,0,1-5.635,1.145,13.71,13.71,0,0,1-5.591-1.145,14.63,14.63,0,0,1-7.616-7.616,14.228,14.228,0,0,1,0-11.182,15.334,15.334,0,0,1,3.082-4.578,14.4,14.4,0,0,1,4.534-3.126,13.709,13.709,0,0,1,5.591-1.145h25.534Zm-25.534,17.434a3.006,3.006,0,0,0,2.994-2.994,2.74,2.74,0,0,0-.88-2.069,2.96,2.96,0,0,0-2.113-.836,2.857,2.857,0,0,0-2.906,2.906,2.959,2.959,0,0,0,.837,2.113A2.739,2.739,0,0,0,194.085,101.349Zm30.288,21.484a5.446,5.446,0,0,1-4.05-1.717,5.562,5.562,0,0,1-1.673-4.006V77.488a5.723,5.723,0,1,1,11.446,0V117.11a5.561,5.561,0,0,1-1.673,4.006A5.446,5.446,0,0,1,224.374,122.833Z" transform="translate(1754.839 2041.922)" fill="#4eac25" fill-rule="evenodd"/>
    <path id="path10" d="M107.678,117.038a1.962,1.962,0,0,0,.887,1.711,4.65,4.65,0,0,0,2.635.612c.3,0,.628-.011.986-.037a8.246,8.246,0,0,0,.937-.113,1.835,1.835,0,0,1,.237.575,2.776,2.776,0,0,1,.087.674,1.475,1.475,0,0,1-.624,1.273,3.473,3.473,0,0,1-2,.449,9.4,9.4,0,0,1-3.521-.612,5.422,5.422,0,0,1-2.385-1.761,4.528,4.528,0,0,1-.861-2.8,3.922,3.922,0,0,1,.8-2.51A5.045,5.045,0,0,1,107,112.954a7.9,7.9,0,0,1,2.947-.537,8.39,8.39,0,0,1,3.06.487,4.369,4.369,0,0,1,1.885,1.311,2.877,2.877,0,0,1,.649,1.823,1.583,1.583,0,0,1-.575,1.4,2.389,2.389,0,0,1-1.4.4,3.125,3.125,0,0,1-1.5-.375,1.064,1.064,0,0,0,.025-.212v-.212a1.932,1.932,0,0,0-.537-1.449,2.3,2.3,0,0,0-1.661-.525,2.271,2.271,0,0,0-1.636.562A1.873,1.873,0,0,0,107.678,117.038Zm9.34-10.439H103.108a.889.889,0,0,1-.8-.337,1.84,1.84,0,0,1-.225-1.012,3.491,3.491,0,0,1,.075-.637,5.028,5.028,0,0,1,.15-.612h13.936q1.024,0,1.024,1.3a3.652,3.652,0,0,1-.075.687A2.914,2.914,0,0,1,117.019,106.6Zm-8.616,6.094-2.448,1.448a3.345,3.345,0,0,1-1.273-1.148,3.046,3.046,0,0,1-.525-1.748,2.754,2.754,0,0,1,1.011-2.3,4.293,4.293,0,0,1,2.735-.8h3.122V106.1h3.546v3.346a1.115,1.115,0,0,1-.312.862,1.384,1.384,0,0,1-.961.287h-4.1a1.658,1.658,0,0,0-1.1.287,1,1,0,0,0-.325.787,1.033,1.033,0,0,0,.175.587,1.5,1.5,0,0,0,.449.437Zm18.805-1.474v2.772h-4.42a2.639,2.639,0,0,1-.924,1.573,2.95,2.95,0,0,1-1.873.549,2.856,2.856,0,0,1-2.073-.662,2.142,2.142,0,0,1-.674-1.586,2.544,2.544,0,0,1,.125-.787,3.875,3.875,0,0,1,.325-.736h.6q1.123,0,1.123-1.224V105.9h3.546v5.32Zm1.049-4.62H116.819a.889.889,0,0,1-.8-.337,1.84,1.84,0,0,1-.225-1.012,4.151,4.151,0,0,1,.063-.637,2.556,2.556,0,0,1,.162-.612h11.463q1.024,0,1.024,1.3a3.672,3.672,0,0,1-.075.687,2.908,2.908,0,0,1-.175.612Zm-1.273-1.224h3.546v14.111q-.25.075-.637.15a4.683,4.683,0,0,1-.886.075,2.439,2.439,0,0,1-1.586-.387,1.539,1.539,0,0,1-.437-1.212Zm5.894,1.224h-7.542a.861.861,0,0,1-.774-.337,1.84,1.84,0,0,1-.225-1.012,4.149,4.149,0,0,1,.063-.637,2.546,2.546,0,0,1,.162-.612H132.1q1.024,0,1.024,1.3a4.365,4.365,0,0,1-.062.687A1.9,1.9,0,0,1,132.877,106.6Zm1.773,7.492a1.811,1.811,0,0,1-1.348-.437,1.6,1.6,0,0,1-.425-1.161,2.3,2.3,0,0,1,.15-.837,2.437,2.437,0,0,1,.4-.687,4.915,4.915,0,0,0,.724.125,8.354,8.354,0,0,0,.924.05,3.3,3.3,0,0,0,2.3-.674,2.339,2.339,0,0,0,.724-1.8,3.772,3.772,0,0,0-.225-1.262,3.887,3.887,0,0,0-.649-1.161l3.471-.05a5.042,5.042,0,0,1,.749,1.424,5.187,5.187,0,0,1,.275,1.7,4.45,4.45,0,0,1-.487,2.085,4.254,4.254,0,0,1-1.4,1.561,5.78,5.78,0,0,1-2.11.874,8.151,8.151,0,0,0,1.923,2.11,11.177,11.177,0,0,0,2.348,1.411,2.709,2.709,0,0,1-.549,1.661,1.977,1.977,0,0,1-1.648.662,3.615,3.615,0,0,1-1.911-.574,5.916,5.916,0,0,1-1.761-1.811A13.334,13.334,0,0,1,134.65,114.09Zm8.966-7.492H132.4a.889.889,0,0,1-.8-.337,1.84,1.84,0,0,1-.225-1.012,3.487,3.487,0,0,1,.075-.637,5.063,5.063,0,0,1,.15-.612h11.238q1.024,0,1.024,1.3a3.667,3.667,0,0,1-.075.687A2.913,2.913,0,0,1,143.616,106.6Zm17.107,3.921,1.149,2.8a5.784,5.784,0,0,1-1.212.437,7.085,7.085,0,0,1-1.885.237,8.19,8.19,0,0,1-1.423-.137,7.407,7.407,0,0,1-1.486-.425,4.421,4.421,0,0,1-1.237-.736,3.519,3.519,0,0,1,.337-.649,4.152,4.152,0,0,1,.575-.712,2.234,2.234,0,0,1,.687-.487,6.344,6.344,0,0,0,.974.225,6.731,6.731,0,0,0,1,.075,5.8,5.8,0,0,0,1.386-.162,3.819,3.819,0,0,0,1.136-.462Zm1.024-3.921H147.936a.889.889,0,0,1-.8-.337,1.84,1.84,0,0,1-.225-1.012,3.488,3.488,0,0,1,.075-.637,5.015,5.015,0,0,1,.15-.612h13.836Q162,104,162,105.3a3.67,3.67,0,0,1-.075.687A2.91,2.91,0,0,1,161.747,106.6Zm-11.887,7.267a1.546,1.546,0,0,1-1.124-.549,1.783,1.783,0,0,1-.325-1.073,2.232,2.232,0,0,1,.15-.812,2.1,2.1,0,0,1,.4-.662,5.6,5.6,0,0,0,.824.113q.5.038.974.037a2.879,2.879,0,0,0,2.036-.624,2.13,2.13,0,0,0,.662-1.623,3.625,3.625,0,0,0-.238-1.3,4.136,4.136,0,0,0-.637-1.124l3.6-.05a7.422,7.422,0,0,1,.637,1.374,5.036,5.036,0,0,1,.263,1.673,4.382,4.382,0,0,1-.5,2.073,4.291,4.291,0,0,1-1.424,1.574,5.4,5.4,0,0,1-2.247.824,7.743,7.743,0,0,0,2,2.26,10.915,10.915,0,0,0,2.423,1.436,2.516,2.516,0,0,1-.562,1.624,2.062,2.062,0,0,1-1.711.7,3.37,3.37,0,0,1-1.523-.375,5.172,5.172,0,0,1-1.449-1.124,8.373,8.373,0,0,1-1.274-1.848A12.028,12.028,0,0,1,149.859,113.866Zm10.614-8.491h3.521v14.111a5.049,5.049,0,0,1-.612.15,4.844,4.844,0,0,1-.912.075,2.383,2.383,0,0,1-1.573-.387,1.565,1.565,0,0,1-.425-1.212Zm5.894,1.224h-7.543a.894.894,0,0,1-.787-.337,1.763,1.763,0,0,1-.237-1.012,3.488,3.488,0,0,1,.075-.637,2.9,2.9,0,0,1,.175-.612h7.542q1.024,0,1.023,1.3a3.7,3.7,0,0,1-.074.687A2.909,2.909,0,0,1,166.367,106.6Zm1.773,7.492a1.812,1.812,0,0,1-1.348-.437,1.6,1.6,0,0,1-.424-1.161,2.3,2.3,0,0,1,.15-.837,2.442,2.442,0,0,1,.4-.687,4.917,4.917,0,0,0,.724.125,8.36,8.36,0,0,0,.924.05,3.3,3.3,0,0,0,2.3-.674,2.339,2.339,0,0,0,.724-1.8,3.776,3.776,0,0,0-.225-1.262,3.889,3.889,0,0,0-.649-1.161l3.471-.05a5.045,5.045,0,0,1,.749,1.424,5.188,5.188,0,0,1,.275,1.7,4.449,4.449,0,0,1-.487,2.085,4.253,4.253,0,0,1-1.4,1.561,5.781,5.781,0,0,1-2.11.874,8.148,8.148,0,0,0,1.923,2.11,11.177,11.177,0,0,0,2.348,1.411,2.709,2.709,0,0,1-.549,1.661,1.977,1.977,0,0,1-1.648.662,3.615,3.615,0,0,1-1.911-.574,5.915,5.915,0,0,1-1.761-1.811,13.329,13.329,0,0,1-1.474-3.209Zm8.966-7.492H165.892a.889.889,0,0,1-.8-.337,1.84,1.84,0,0,1-.225-1.012,3.488,3.488,0,0,1,.075-.637,5.021,5.021,0,0,1,.15-.612h11.238q1.024,0,1.024,1.3a3.672,3.672,0,0,1-.075.687A2.9,2.9,0,0,1,177.106,106.6Zm8.291,6.643,1.074,1.823a4.6,4.6,0,0,1-.874,1.249,4.043,4.043,0,0,1-1.461.949,5.915,5.915,0,0,1-2.16.349,5.185,5.185,0,0,1-2.348-.549,4.348,4.348,0,0,1-1.773-1.636,4.947,4.947,0,0,1-.675-2.659,4.69,4.69,0,0,1,.637-2.523,4.194,4.194,0,0,1,1.649-1.548,4.625,4.625,0,0,1,2.16-.524,2.806,2.806,0,0,1,1.786.475A1.552,1.552,0,0,1,184,109.92a2.157,2.157,0,0,1-.1.662,2.072,2.072,0,0,1-.275.562,1.79,1.79,0,0,0-.375-.112,2.961,2.961,0,0,0-.524-.038,1.991,1.991,0,0,0-1.348.475,1.747,1.747,0,0,0-.549,1.4,1.783,1.783,0,0,0,.587,1.4,2.183,2.183,0,0,0,1.511.524,2.772,2.772,0,0,0,1.2-.237,2.518,2.518,0,0,0,.812-.587,2.473,2.473,0,0,0,.462-.724Zm2.572-.574-1.124-1.748a5.164,5.164,0,0,1,1.611-1.873,4.946,4.946,0,0,1,2.959-.774,5.016,5.016,0,0,1,2.385.562,4.272,4.272,0,0,1,1.7,1.636,5.639,5.639,0,0,1,.025,5.157,4.028,4.028,0,0,1-1.611,1.561,4.509,4.509,0,0,1-2.123.524,2.624,2.624,0,0,1-1.636-.437,1.5,1.5,0,0,1-.562-1.261,2.194,2.194,0,0,1,.1-.649,2.1,2.1,0,0,1,.25-.549l.35.05a2.57,2.57,0,0,0,.375.025,1.849,1.849,0,0,0,1.286-.487,1.809,1.809,0,0,0,.537-1.411,1.782,1.782,0,0,0-.562-1.386,2.157,2.157,0,0,0-1.511-.512,2.539,2.539,0,0,0-1.561.475,2.57,2.57,0,0,0-.887,1.1Zm9.565-6.069H176.406a.889.889,0,0,1-.8-.337,1.84,1.84,0,0,1-.225-1.012,3.486,3.486,0,0,1,.075-.637,5.015,5.015,0,0,1,.15-.612h21.178q1,0,1,1.3a4.369,4.369,0,0,1-.063.687,1.9,1.9,0,0,1-.187.612Zm-12.587-1.224h3.546v14.111q-.25.075-.637.15a4.689,4.689,0,0,1-.887.075,2.44,2.44,0,0,1-1.586-.387,1.539,1.539,0,0,1-.437-1.212Zm13.736,0h3.546v14.111q-.25.075-.637.15a4.684,4.684,0,0,1-.886.075,2.439,2.439,0,0,1-1.586-.387,1.539,1.539,0,0,1-.437-1.212Zm5.894,1.224H197.06a.889.889,0,0,1-.8-.337,1.84,1.84,0,0,1-.225-1.012,4.153,4.153,0,0,1,.063-.637,2.549,2.549,0,0,1,.162-.612h7.567q1.024,0,1.024,1.3a3.665,3.665,0,0,1-.075.687A2.1,2.1,0,0,1,204.577,106.6Zm1.773,7.492a1.811,1.811,0,0,1-1.348-.437,1.6,1.6,0,0,1-.425-1.161,2.3,2.3,0,0,1,.15-.837,2.439,2.439,0,0,1,.4-.687,4.919,4.919,0,0,0,.724.125,8.361,8.361,0,0,0,.924.05,3.3,3.3,0,0,0,2.3-.674,2.339,2.339,0,0,0,.724-1.8,3.773,3.773,0,0,0-.225-1.262,3.887,3.887,0,0,0-.649-1.161l3.471-.05a5.043,5.043,0,0,1,.749,1.424,5.189,5.189,0,0,1,.275,1.7,4.449,4.449,0,0,1-.487,2.085,4.253,4.253,0,0,1-1.4,1.561,5.782,5.782,0,0,1-2.11.874,8.148,8.148,0,0,0,1.923,2.11,11.177,11.177,0,0,0,2.348,1.411,2.709,2.709,0,0,1-.549,1.661,1.977,1.977,0,0,1-1.648.662,3.614,3.614,0,0,1-1.911-.574,5.916,5.916,0,0,1-1.761-1.811,13.336,13.336,0,0,1-1.474-3.209Zm8.966-7.492H204.1a.889.889,0,0,1-.8-.337,1.84,1.84,0,0,1-.225-1.012,3.491,3.491,0,0,1,.075-.637,5.066,5.066,0,0,1,.15-.612h11.238q1.024,0,1.024,1.3a3.668,3.668,0,0,1-.075.687A2.9,2.9,0,0,1,215.315,106.6Zm6.018,7.942H215.84a3.082,3.082,0,0,1-.275-.637,2.71,2.71,0,0,1-.125-.837,1.558,1.558,0,0,1,.375-1.162,1.376,1.376,0,0,1,1-.362h5.494a4.02,4.02,0,0,1,.263.624,2.519,2.519,0,0,1,.137.824,1.569,1.569,0,0,1-.387,1.173,1.36,1.36,0,0,1-.987.375Zm7.043,2.5a1.962,1.962,0,0,0,.887,1.711,4.649,4.649,0,0,0,2.635.612c.3,0,.628-.011.986-.037a8.261,8.261,0,0,0,.937-.113,1.84,1.84,0,0,1,.237.574,2.787,2.787,0,0,1,.087.674,1.475,1.475,0,0,1-.624,1.273,3.473,3.473,0,0,1-2,.449A9.4,9.4,0,0,1,228,121.57a5.423,5.423,0,0,1-2.385-1.761,4.53,4.53,0,0,1-.861-2.8,3.922,3.922,0,0,1,.8-2.51,5.044,5.044,0,0,1,2.148-1.549,7.9,7.9,0,0,1,2.947-.537,8.391,8.391,0,0,1,3.06.487,4.369,4.369,0,0,1,1.885,1.311,2.878,2.878,0,0,1,.649,1.823,1.583,1.583,0,0,1-.574,1.4,2.389,2.389,0,0,1-1.4.4,3.124,3.124,0,0,1-1.5-.375,1.061,1.061,0,0,0,.025-.212v-.212a1.932,1.932,0,0,0-.537-1.449,2.3,2.3,0,0,0-1.661-.525,2.271,2.271,0,0,0-1.636.562,1.872,1.872,0,0,0-.587,1.411Zm9.34-10.439H223.806a.889.889,0,0,1-.8-.337,1.842,1.842,0,0,1-.225-1.012,3.469,3.469,0,0,1,.075-.637,5.067,5.067,0,0,1,.15-.612h13.936q1.024,0,1.024,1.3a3.678,3.678,0,0,1-.075.687,2.9,2.9,0,0,1-.175.612Zm-8.616,6.094-2.448,1.448a3.346,3.346,0,0,1-1.273-1.148,3.046,3.046,0,0,1-.524-1.748,2.754,2.754,0,0,1,1.011-2.3,4.293,4.293,0,0,1,2.735-.8h3.122V106.1h3.546v3.346a1.116,1.116,0,0,1-.312.862,1.384,1.384,0,0,1-.962.287h-4.1a1.658,1.658,0,0,0-1.1.287,1,1,0,0,0-.325.787,1.033,1.033,0,0,0,.175.587A1.5,1.5,0,0,0,229.1,112.692Zm18.805-1.474v2.772h-4.42a2.639,2.639,0,0,1-.924,1.573,2.95,2.95,0,0,1-1.873.549,2.855,2.855,0,0,1-2.072-.662,2.142,2.142,0,0,1-.675-1.586,2.548,2.548,0,0,1,.125-.787,3.884,3.884,0,0,1,.325-.736h.6q1.123,0,1.124-1.224V105.9h3.546v5.32Zm1.049-4.62H237.517a.889.889,0,0,1-.8-.337,1.84,1.84,0,0,1-.225-1.012,4.147,4.147,0,0,1,.063-.637,2.548,2.548,0,0,1,.162-.612h11.463q1.024,0,1.024,1.3a3.67,3.67,0,0,1-.075.687A2.924,2.924,0,0,1,248.955,106.6Zm-1.273-1.224h3.546v14.111q-.25.075-.637.15a4.687,4.687,0,0,1-.887.075,2.439,2.439,0,0,1-1.586-.387,1.539,1.539,0,0,1-.437-1.212Zm5.893,1.224h-7.542a.861.861,0,0,1-.774-.337,1.841,1.841,0,0,1-.225-1.012,4.146,4.146,0,0,1,.063-.637,2.546,2.546,0,0,1,.162-.612H252.8q1.024,0,1.024,1.3a4.391,4.391,0,0,1-.062.687A1.9,1.9,0,0,1,253.575,106.6Zm1.773,7.492a1.812,1.812,0,0,1-1.348-.437,1.6,1.6,0,0,1-.425-1.161,2.3,2.3,0,0,1,.15-.837,2.442,2.442,0,0,1,.4-.687,4.92,4.92,0,0,0,.724.125,8.362,8.362,0,0,0,.924.05,3.3,3.3,0,0,0,2.3-.674,2.34,2.34,0,0,0,.724-1.8,3.772,3.772,0,0,0-.225-1.262,3.888,3.888,0,0,0-.649-1.161l3.471-.05a5.047,5.047,0,0,1,.749,1.424,5.188,5.188,0,0,1,.275,1.7,4.45,4.45,0,0,1-.487,2.085,4.253,4.253,0,0,1-1.4,1.561,5.781,5.781,0,0,1-2.11.874,8.148,8.148,0,0,0,1.923,2.11,11.173,11.173,0,0,0,2.348,1.411,2.71,2.71,0,0,1-.549,1.661,1.977,1.977,0,0,1-1.649.662,3.614,3.614,0,0,1-1.91-.574,5.917,5.917,0,0,1-1.761-1.811,13.338,13.338,0,0,1-1.473-3.209Zm8.966-7.492H253.1a.889.889,0,0,1-.8-.337,1.84,1.84,0,0,1-.225-1.012,3.49,3.49,0,0,1,.075-.637,5.037,5.037,0,0,1,.15-.612H263.54q1.024,0,1.024,1.3a3.675,3.675,0,0,1-.075.687A2.909,2.909,0,0,1,264.314,106.6ZM276.7,118.636a1.052,1.052,0,0,1,.287-.025h.287a1.056,1.056,0,0,1,.762.275,2.3,2.3,0,0,1,.437.549,2.038,2.038,0,0,1,.15.3,3.012,3.012,0,0,1-.3,1.2,4.639,4.639,0,0,1-.874,1.286,4.487,4.487,0,0,1-1.474,1.011,5.123,5.123,0,0,1-2.1.4,4.665,4.665,0,0,1-3.034-.924,3.076,3.076,0,0,1-1.136-2.522,2.651,2.651,0,0,1,.849-2.1,3.358,3.358,0,0,1,1.973-.849l1.274,1.448a1.488,1.488,0,0,0-.8.437,1.112,1.112,0,0,0-.275.762,1.02,1.02,0,0,0,.412.861,1.755,1.755,0,0,0,1.087.312,2.245,2.245,0,0,0,1.286-.363,2.655,2.655,0,0,0,.849-.924,2.547,2.547,0,0,0,.337-1.136ZM282.97,106.6H268.635a.889.889,0,0,1-.8-.337,1.84,1.84,0,0,1-.225-1.012,3.488,3.488,0,0,1,.075-.637,5.089,5.089,0,0,1,.15-.612H282.2q1.024,0,1.024,1.3a3.655,3.655,0,0,1-.075.687A2.876,2.876,0,0,1,282.97,106.6Zm-3.047,11.463-1.5.624a7.246,7.246,0,0,1-1.087.312,6.975,6.975,0,0,1-1.461.137,8.122,8.122,0,0,1-3.247-.625,5.312,5.312,0,0,1-2.31-1.86,5.175,5.175,0,0,1-.862-3.034,5.4,5.4,0,0,1,.675-2.7,4.769,4.769,0,0,1,2.01-1.9,7.136,7.136,0,0,1,3.334-.7H276.7V105.15h3.521v4.8a1.149,1.149,0,0,1-.312.887,1.384,1.384,0,0,1-.962.287h-2.872a3.468,3.468,0,0,0-2.16.637,2.222,2.222,0,0,0-.836,1.886,2.617,2.617,0,0,0,.375,1.436,2.483,2.483,0,0,0,1,.9,3.083,3.083,0,0,0,1.4.312,1.84,1.84,0,0,0,1.111-.288,1,1,0,0,0,.387-.861,3.186,3.186,0,0,0-.063-.6,5.854,5.854,0,0,0-.137-.574,2.079,2.079,0,0,1,.774-.5,2.8,2.8,0,0,1,1.048-.2,2.337,2.337,0,0,1,1.624.637,2.23,2.23,0,0,1,.7,1.736,2.782,2.782,0,0,1-.35,1.361A2.9,2.9,0,0,1,279.923,118.061Zm.2-.325a16.975,16.975,0,0,0,.862,1.573,12.316,12.316,0,0,0,.861,1.224q.425.525.774.924a1.869,1.869,0,0,1-.712,1.248,2.252,2.252,0,0,1-1.411.45,2.128,2.128,0,0,1-1.449-.5,2.8,2.8,0,0,1-.8-1.6l-.549-2.273Zm3.9-12.362h3.546v14.111q-.25.075-.637.15a4.685,4.685,0,0,1-.886.075,2.439,2.439,0,0,1-1.586-.387,1.539,1.539,0,0,1-.437-1.212Zm5.894,1.224H282.4a.889.889,0,0,1-.8-.337,1.84,1.84,0,0,1-.225-1.012,4.15,4.15,0,0,1,.063-.637A2.56,2.56,0,0,1,281.6,104h7.567q1.024,0,1.024,1.3a3.67,3.67,0,0,1-.075.687,2.1,2.1,0,0,1-.2.612Zm1.773,7.492a1.811,1.811,0,0,1-1.348-.437,1.6,1.6,0,0,1-.425-1.161,2.3,2.3,0,0,1,.15-.837,2.436,2.436,0,0,1,.4-.687,4.916,4.916,0,0,0,.724.125,8.361,8.361,0,0,0,.924.05,3.3,3.3,0,0,0,2.3-.674,2.339,2.339,0,0,0,.724-1.8,3.772,3.772,0,0,0-.225-1.262,3.889,3.889,0,0,0-.649-1.161l3.471-.05a5.045,5.045,0,0,1,.749,1.424,5.188,5.188,0,0,1,.275,1.7,4.45,4.45,0,0,1-.487,2.085,4.255,4.255,0,0,1-1.4,1.561,5.78,5.78,0,0,1-2.11.874,8.15,8.15,0,0,0,1.923,2.11,11.178,11.178,0,0,0,2.348,1.411,2.709,2.709,0,0,1-.549,1.661,1.977,1.977,0,0,1-1.648.662,3.614,3.614,0,0,1-1.911-.574,5.916,5.916,0,0,1-1.761-1.811,13.336,13.336,0,0,1-1.474-3.209Zm8.966-7.492H289.438a.889.889,0,0,1-.8-.337,1.84,1.84,0,0,1-.225-1.012,3.5,3.5,0,0,1,.075-.637,5.1,5.1,0,0,1,.15-.612h11.238q1.024,0,1.024,1.3a3.655,3.655,0,0,1-.075.687A2.907,2.907,0,0,1,300.651,106.6Z" transform="translate(1684.035 2071.316)" fill="#fff" fill-rule="evenodd"/>
    <path id="path34" d="M131.237,61.72c.081-.05.062-.078.163-.145.295-.193.172-.252-.03-1.065-.078-.312-.134-.607-.2-.927-.122-.614-.217-1.233-.311-1.9-.047-.331-.075-.65-.1-.981a21.049,21.049,0,0,1,1.894-10.48,43.773,43.773,0,0,1,2.428-4.82c.074-.122.129-.24.207-.368.145-.241.271-.475.412-.708l1.225-2.107.42-.7,2.723-4.474c.075-.126.151-.225.224-.348.3-.506.645-1,.969-1.49a10.683,10.683,0,0,1,1.311-1.763,5.721,5.721,0,0,1,.7.911c.081.12.138.217.219.334.371.535.68,1.105,1.014,1.663l2.064,3.869.866,1.816a35.7,35.7,0,0,1,2.317,6.7c.069.277.12.56.193.852.148.592.236,1.161.34,1.77a37.91,37.91,0,0,1,.471,6.744c0,.182-.015.375-.013.533s-.029.387-.042.558c.189-.052.616-.779.7-.92,1.515-2.514,1.343-6.351.988-9.155-.09-.708-.218-1.413-.335-2.087-.059-.343-.141-.681-.2-1-.257-1.32-.643-2.608-1-3.894-.087-.317-.192-.631-.292-.95-.189-.608-.389-1.248-.62-1.843-.174-.448-.312-.905-.494-1.351-.065-.159-.119-.285-.181-.445l-.534-1.317a32.577,32.577,0,0,0-3.943-7.011l-.416-.531a12.21,12.21,0,0,0-1.533-1.663c-.115-.108-.218-.207-.333-.315l-.655-.614a3.108,3.108,0,0,1-.447-.505c-.22-.327-.192-.17-.893-.047-.2.036-.184.027-.232.247-.034.155-.06.275-.1.405l-.428,1.574a36.765,36.765,0,0,1-1.528,4.377l-.6,1.373a36.129,36.129,0,0,1-2,3.858c-.122.2-.265.415-.363.613-.185.373-1.042,1.635-1.321,2.086-.3.485-.638.959-.968,1.431-.139.2-.265.37-.4.565l-2.812,3.942c-.687.959-1.294,1.951-1.905,2.959a16.331,16.331,0,0,0-2.3,6.617c-.015.19-.041.3-.063.448-.019.128.008.271-.008.447a10.765,10.765,0,0,0,.235,3.32c.537,2.029,1.788,2.712,3.278,3.824l1.076.854c.1.088.158.148.247.232l.7.733c.056.066.17.227.211.263Z" transform="translate(1705.347 1996)" fill="#fff" fill-rule="evenodd"/>
    <path id="path36" d="M146.318,61.026a32.065,32.065,0,0,0,2.734,1.837l2.119,1.319c.828.494,1.828,1.153,2.634,1.688l.876.582c2.872,2.167,6.946,4.132,10.11,6.018,1.072.645,2.112,1.351,3.19,1.994l.706.44c.124.075.254.149.376.226a8.55,8.55,0,0,1-1.015,2.2,7.678,7.678,0,0,1-1.475,1.662,6.964,6.964,0,0,1-2.715,1.4c-.188.051-.354.09-.538.134a11.834,11.834,0,0,1-5-.127,15.106,15.106,0,0,1-4.157-1.637l-.877-.528a32.9,32.9,0,0,1-3.346-2.331c-.141-.111-.251-.2-.391-.318-.073-.059-.12-.092-.189-.152s-.121-.111-.2-.171a11.685,11.685,0,0,1-1.1-1.013c-.289-.3-.768-.74-1.028-1.051a13.3,13.3,0,0,0-1.049-1.06,5.38,5.38,0,0,0-1.274-.867,6.957,6.957,0,0,0-1.03-.4c-.4-.123-.75-.189-1.191-.286-.209-.046-.443-.073-.63-.114-.3-.064-1-.143-1.329-.168-.264-.02-.413-.061-.669-.081a10.505,10.505,0,0,0,1.164,2.474,12.907,12.907,0,0,0,.936,1.339l1.743,1.98a16.308,16.308,0,0,0,1.745,1.586c.708.557,1.407,1.126,2.164,1.62l1.166.751c.2.142.383.223.6.352a27.64,27.64,0,0,0,4.55,2.189c.489.179.951.347,1.451.508a24.841,24.841,0,0,0,3.523.875c.444.073.86.148,1.316.185l.022,0,1.454.114a16.366,16.366,0,0,0,2.836-.16c.276-.048.486-.077.749-.131a11.445,11.445,0,0,0,2.074-.624,9.105,9.105,0,0,0,2.344-1.347,6.3,6.3,0,0,0,.508-.413c.156-.167.309-.284.47-.457a11.661,11.661,0,0,0,2.9-5.76A25.165,25.165,0,0,0,174,71.72c-.207-.131-5.116-2.146-5.459-2.273-.384-.143-.989-.292-1.417-.432-1.186-.389-2.378-.782-3.519-1.271l-.85-.343c-.762-.276-2.1-.9-2.935-1.247-.979-.411-1.923-.861-2.9-1.275-.567-.24-1.091-.481-1.659-.721-1.142-.483-2.241-.948-3.413-1.387a45.653,45.653,0,0,0-5.019-1.631,3.166,3.166,0,0,0-.509-.112Z" transform="translate(1718.479 2032.13)" fill="#fff" fill-rule="evenodd"/>
    <path id="path44" d="M207.658,37.113l-.116,1.482a36.135,36.135,0,0,1-1.575,7.8,41.575,41.575,0,0,1-1.559,4.311l-.627,1.463c-.435,1.037-.97,2.085-1.49,3.079l-1.166,2.146L199.1,60.734c-.061.095-.1.138-.16.241l-.312.49c-.111.163-.215.324-.327.5-.054.084-.1.153-.162.238s-.1.152-.16.239c-.738,1.045-1.308,1.854-2.084,2.843l-2.272,2.591c-.135.145-.265.28-.4.423s-.254.281-.393.426c-4.374,4.748-9.923,10.165-16.131,12.649l-2.253.875c-.379.154-.723.295-1.1.448a9.744,9.744,0,0,1-3.621,1.012c-.454.066-.88.127-1.32.2.041-.054,1.039-.676,1.239-.84l1.486-1.13a18.631,18.631,0,0,0,1.786-1.144c.076-.06.107-.069.18-.126a1.459,1.459,0,0,1,.157-.122c.12-.079.2-.164.334-.252l1.142-.951c.232-.249.523-.45.773-.682.069-.063.081-.095.152-.157s.095-.08.153-.128l.619-.557c.224-.189.424-.362.649-.553a9.339,9.339,0,0,1,.822-.656l.825-.621c.073-.054.1-.065.179-.127a1.241,1.241,0,0,1,.16-.116,11.637,11.637,0,0,0,1.112-.991c.05-.054.092-.08.147-.131.408-.375.776-.8,1.176-1.187.108-.1.2-.21.3-.318l.86-.917c.053-.055.1-.111.146-.165l.98-1.082c.391-.41.756-.848,1.126-1.277.188-.218.358-.422.548-.64L187.1,67.1c.9-1.1,1.838-2.17,2.655-3.333.088-.126.162-.219.252-.346.546-.772,1.12-1.523,1.608-2.331.043-.072.065-.111.111-.174.38-.525,1.037-1.659,1.391-2.249,1.085-1.8,2.051-3.67,2.957-5.573.536-1.126,1.045-2.258,1.478-3.429.446-1.2.918-2.414,1.28-3.658a19.66,19.66,0,0,0,.393-2.1l.9-5.331c-.032.007-.022-.005-.066.043-.13.145-.483.722-.872,1.149a16.2,16.2,0,0,1-1.763,1.415l-.3.23c-.669.575-1.206,1.287-1.915,1.819-.064.047-.1.062-.164.115-.349.264-.731.488-1.1.722l-1.271.831c-.215.15-.423.267-.636.416s-.424.267-.635.415c-.11.077-.211.138-.319.206l-1.912,1.213c-.119.076-.206.123-.324.2L180.743,51.8c-.99.492-2.4,1.266-3.378,1.815l-2.653,1.536c-.871.518-1.72,1.081-2.577,1.623-1.018.644-2.285,1.494-3.273,2.243l-2.518,1.968a10.948,10.948,0,0,0-.87.723,6.379,6.379,0,0,1-.563.5l-.969.91c-.392.4-.816.787-1.185,1.209-.175.2-.34.369-.51.562s-.341.373-.5.574a27.584,27.584,0,0,0-2.683,3.79,21.435,21.435,0,0,0-2.454,6.4,10.1,10.1,0,0,0-.244,1.455c-.015.215-.054.3-.069.5-.026.354-.054.707-.083,1.062l-.024.987c.095.734.479,2.531.636,3.421a3.86,3.86,0,0,0,.368.939l1.185,2.69a10.892,10.892,0,0,0,.936,1.678c.349.457.673,1.094,1.006,1.617.047.074.072.1.112.165l.962,1.37c.341.526,1.241,1.558,1.66,2.05l1.4,1.544c.565.584,1.152,1.163,1.758,1.705.518.464,1.037.949,1.583,1.386.645.514,1.282,1.03,1.957,1.509l.636.448c.113.082.212.141.324.219l1.662,1.057a25.834,25.834,0,0,0,6.122,2.671l.887.234c.237.076,1.316.571,1.531.673.138.066.238.107.383.169a3.475,3.475,0,0,0,.362.158,4.017,4.017,0,0,1-.929.011c-.285-.023-.672,0-.952-.016-.657-.043-1.313-.049-1.964-.1L175.8,105.1c-.322-.024-.694-.037-1.006-.078-.158-.022-.275-.05-.473-.065-.154-.012-.354-.018-.5-.042-.611-.1-1.3-.141-1.9-.256l-.718-.089c-.383-.061-.767-.1-1.156-.187-.308-.069-.607-.087-.917-.156l-4.433-.907A67.716,67.716,0,0,1,152.723,99.5c-.838-.38-1.664-.741-2.489-1.159C139.806,93,137.674,87.975,133.067,79.99c-.161-.291-.4-.473-.443-.613-.062-.2-.172-.153-.21-.343a5.551,5.551,0,0,0-.373-1.166c-.081-.167-.143-.333-.219-.491a36.45,36.45,0,0,0-1.72-3.252l-.264-.453c-.6-1.048-1.255-2.054-1.9-3.072-.462-.732-.972-1.431-1.451-2.152a12.638,12.638,0,0,0-.956-1.19,1.541,1.541,0,0,0-.177-.188L125,66.7a16.573,16.573,0,0,0-3.1-2.38l-.48-.268c-.337-.17-.66-.342-1-.5a17.7,17.7,0,0,0-3.377-1.157,20.2,20.2,0,0,0-2.627-.444l-1.424-.111a8.471,8.471,0,0,1,.894-1.486c.171-.242.334-.446.523-.669l.554-.6,1.417-1.21c.068-.046.1-.072.165-.111A13.315,13.315,0,0,1,120,56.1l.867-.234a16.467,16.467,0,0,1,1.9-.312,18.459,18.459,0,0,1,2.64-.054c.786.066,1.468.143,2.227.262a18.406,18.406,0,0,1,3.37.9,19.55,19.55,0,0,1,2.495,1.1c.256.137.514.265.764.416l.752.454c.733.439,1.413.941,2.11,1.431a17.209,17.209,0,0,0,2.788,1.921c.256.084.2.055.358.241a6.055,6.055,0,0,0,2.583,1.575,15.9,15.9,0,0,0,9.943.154,13.616,13.616,0,0,0,1.543-.726c.5-.281.951-.56,1.417-.876.521-.351,1.006-.729,1.5-1.117.584-.461,1.149-.955,1.716-1.439l7.64-7.176c.227-.242,1.075-.923,1.383-1.187l.646-.526c.287-.246.97-.8,1.3-1.014.077-.05.1-.084.172-.135l1.174-.825c.123-.089.219-.15.344-.236.452-.312.93-.584,1.39-.876.584-.369,1.212-.692,1.827-1.006l2.288-1.139c.263-.133.495-.233.759-.362s.5-.233.76-.362l1.742-.83c.07-.035.114-.05.187-.086l1.141-.559c1.381-.69,2.726-1.416,4.069-2.166l1.444-.843c.6-.346,1.186-.727,1.773-1.1.124-.077.232-.153.351-.23s.216-.135.336-.216l2.034-1.406c.114-.08.219-.168.331-.253l.656-.483c.062-.05.1-.093.166-.141l.794-.629c.074-.061.107-.068.18-.126l2.157-1.87c.061-.059.069-.084.137-.145.468-.414.891-.868,1.34-1.3.054-.051.088-.091.138-.143l1.4-1.532,1.815-2.272c.826-1.163,1.366-1.981,2.119-3.229l1.051-1.912a1.537,1.537,0,0,1,.369-.18,1.776,1.776,0,0,0,.147.265,22.6,22.6,0,0,1,2.519,6.454,29.444,29.444,0,0,1,.571,4.024,19.774,19.774,0,0,1,.05,2.2c-.011.162.013.214,0,.392a2.35,2.35,0,0,0-.015.377c0,.031,0,.063.006.1Zm-85.5,21.44a8.8,8.8,0,0,1,1.435-.122,6.172,6.172,0,0,1,1.7.2,3.439,3.439,0,0,1,1.051.472c.134.112-.011.123-.226.116a2.806,2.806,0,0,0-.679.019c-.177.046-.248.165-.321.169s-.146-.1-.311-.219a2.347,2.347,0,0,0-.846-.334c-.423-.093-1.013-.161-1.409-.2s-.6-.057-.392-.1Zm-2.407,1.34c.111-.267.158.08.545.46a4.458,4.458,0,0,0,1.977,1,5.47,5.47,0,0,0,2.7-.027,19.276,19.276,0,0,0,2.241-1.024,6.719,6.719,0,0,1,2.381-.452c.887-.034,1.893.018,1.885.226s-1.033.572-1.785,1.056a9.034,9.034,0,0,0-1.743,1.633,12.523,12.523,0,0,1-1.493,1.373,1.839,1.839,0,0,1-1.342.476,7.307,7.307,0,0,1-2.176-.544A12.906,12.906,0,0,1,120.876,63a2.4,2.4,0,0,1-1.251-1.342A3.531,3.531,0,0,1,119.748,59.893Zm-6.2,1.611c.395-.5.791-.991,1.286-1.552a13.455,13.455,0,0,1,1.7-1.658,7.9,7.9,0,0,1,2.114-1.139c.871-.338,1.985-.686,3.1-1.034-.818.721-1.637,1.439-2.158,2.015a4.523,4.523,0,0,0-.914,1.437,3.632,3.632,0,0,0-.3,1.3,6.051,6.051,0,0,0,.226,1.412,19.88,19.88,0,0,0-2.168-.641,9.3,9.3,0,0,0-1.782-.191,10.162,10.162,0,0,0-1.1.047Z" transform="translate(1693.974 1997.729)" fill="#fff" fill-rule="evenodd"/>
  </g>
</svg>
